<?xml version="1.0" encoding="UTF-8" standalone="no"?>
<!-- Created with Inkscape (http://www.inkscape.org/) -->

<svg
   width="14in"
   height="8.5in"
   viewBox="0 0 56 34"
   version="1.1"
   id="svg658"
   xml:space="preserve"
   inkscape:version="1.2.2 (b0a8486541, 2022-12-01)"
   sodipodi:docname="how-it-works-data.svg"
   xmlns:inkscape="http://www.inkscape.org/namespaces/inkscape"
   xmlns:sodipodi="http://sodipodi.sourceforge.net/DTD/sodipodi-0.dtd"
   xmlns="http://www.w3.org/2000/svg"
   xmlns:svg="http://www.w3.org/2000/svg"><sodipodi:namedview
     id="namedview660"
     pagecolor="#ffffff"
     bordercolor="#000000"
     borderopacity="0.25"
     inkscape:showpageshadow="2"
     inkscape:pageopacity="0.0"
     inkscape:pagecheckerboard="0"
     inkscape:deskcolor="#d1d1d1"
     inkscape:document-units="in"
     showgrid="true"
     inkscape:zoom="0.914906"
     inkscape:cx="535.02764"
     inkscape:cy="296.20529"
     inkscape:window-width="1920"
     inkscape:window-height="1031"
     inkscape:window-x="1920"
     inkscape:window-y="0"
     inkscape:window-maximized="0"
     inkscape:current-layer="layer1"><inkscape:grid
       type="xygrid"
       id="grid779"
       units="in"
       spacingx="0.2"
       originx="0"
       originy="0"
       spacingy="0.2" /></sodipodi:namedview><defs
     id="defs655"><marker
       style="overflow:visible"
       id="Arrow4"
       refX="0"
       refY="0"
       orient="auto-start-reverse"
       inkscape:stockid="Arrow4"
       markerWidth="5"
       markerHeight="6"
       viewBox="0 0 5 6"
       inkscape:isstock="true"
       inkscape:collect="always"
       preserveAspectRatio="xMidYMid"><path
         style="fill:context-stroke;fill-rule:evenodd;stroke:none"
         d="m 1,0 -3,3 h -2 l 3,-3 -3,-3 h 2 z"
         id="path1741" /></marker></defs><g
     inkscape:label="Layer 1"
     inkscape:groupmode="layer"
     id="layer1"><text
       xml:space="preserve"
       style="font-size:1.11111px;text-align:center;text-anchor:middle;fill:#000000;stroke:#000000;stroke-width:0.04"
       x="14.000001"
       y="11.000001"
       id="text398"><tspan
         sodipodi:role="line"
         id="tspan396"
         style="stroke-width:0.04"></tspan></text><g
       id="g15444"><g
         id="g1671"
         transform="translate(24.233342)"><path
           d="m 12.426626,4.5524068 c -0.1841,0 -0.333333,0.15 -0.333333,0.3333333 v 2.3333334 c 0,0.1833333 0.149238,0.3333333 0.333333,0.3333333 h 3.333334 c 0.184166,0 0.333333,-0.15 0.333333,-0.3333333 V 4.8857401 c 0,-0.1833333 -0.149167,-0.3333333 -0.333333,-0.3333333 z"
           fill="#2980b9"
           id="path552"
           style="fill:#29b964;fill-opacity:1;stroke-width:0.166667" /><path
           d="m 12.593293,3.8857401 c -0.1841,0 -0.333333,0.15 -0.333333,0.3333333 v 2.3333334 c 0,0.1833334 0.149233,0.3333334 0.333333,0.3333334 h 1.833333 0.833334 0.333333 c 0.184167,0 0.333333,-0.15 0.333333,-0.3333334 v -1.5 -0.5 c 0,-0.1833334 -0.149166,-0.3333334 -0.333333,-0.3333334 H 15.25996 14.426626 14.25996 l -0.5,-0.3333333 z"
           fill="#2980b9"
           id="path554"
           style="fill:#29b964;fill-opacity:1;stroke-width:0.166667" /><path
           d="M 15.926626,6.0524068 V 4.7190734 c 0,-0.1833333 -0.149166,-0.3333333 -0.333333,-0.3333333 H 13.75996 12.926626 12.593293 c -0.1841,0 -0.333333,0.15 -0.333333,0.3333333 v 1.3333334 z"
           fill="#bdc3c7"
           id="path556"
           style="fill:#bdc7bd;fill-opacity:1;stroke-width:0.166667" /><path
           d="m 12.426626,4.5524068 c -0.1841,0 -0.333333,0.15 -0.333333,0.3333333 v 1 0.1666667 1 c 0,0.1833334 0.149238,0.3333334 0.333333,0.3333334 h 3.333334 c 0.184166,0 0.333333,-0.15 0.333333,-0.3333334 v -1 -0.1666667 -1 c 0,-0.1833333 -0.149167,-0.3333333 -0.333333,-0.3333333 z"
           fill="#3498db"
           id="path558"
           style="fill:#34db72;fill-opacity:1;stroke-width:0.166667" /></g><text
         xml:space="preserve"
         style="font-size:1.11111px;text-align:center;text-anchor:middle;fill:#000000;stroke:#000000;stroke-width:0.04"
         x="42.812374"
         y="5.9951844"
         id="text564"><tspan
           sodipodi:role="line"
           id="tspan562"
           style="font-size:1.11111px;stroke-width:0.04"
           x="42.812374"
           y="5.9951844">Project 2</tspan></text></g><g
       id="g514"
       transform="translate(-1.1706749,0.49526437)"><g
         transform="matrix(0.16666667,0,0,0.16666667,3.5142858,-168.17619)"
         id="g188"><path
           d="m 2,1033.4 c -1.1046,0 -2,0.9 -2,2 v 14 c 0,1.1 0.89543,2 2,2 h 20 c 1.105,0 2,-0.9 2,-2 v -14 c 0,-1.1 -0.895,-2 -2,-2 z"
           fill="#2980b9"
           id="path180" /><path
           d="m 3,1029.4 c -1.1046,0 -2,0.9 -2,2 v 14 c 0,1.1 0.8954,2 2,2 h 11 5 2 c 1.105,0 2,-0.9 2,-2 v -9 -3 c 0,-1.1 -0.895,-2 -2,-2 h -2 -5 -1 l -3,-2 z"
           fill="#2980b9"
           id="path182" /><path
           d="m 23,1042.4 v -8 c 0,-1.1 -0.895,-2 -2,-2 H 10 5 3 c -1.1046,0 -2,0.9 -2,2 v 8 z"
           fill="#bdc3c7"
           id="path184" /><path
           d="m 2,1033.4 c -1.1046,0 -2,0.9 -2,2 v 6 1 6 c 0,1.1 0.89543,2 2,2 h 20 c 1.105,0 2,-0.9 2,-2 v -6 -1 -6 c 0,-1.1 -0.895,-2 -2,-2 z"
           fill="#3498db"
           id="path186" /></g><text
         xml:space="preserve"
         style="font-size:1.11111px;text-align:center;text-anchor:middle;fill:#000000;stroke:#000000;stroke-width:0.04"
         x="10"
         y="6"
         id="text363"><tspan
           sodipodi:role="line"
           id="tspan361"
           style="font-size:1.11111px;stroke-width:0.04"
           x="10"
           y="6">Project 1</tspan></text></g><g
       id="g15427"
       transform="translate(-0.22176372,1.6518229)"><g
         id="g13030"
         transform="translate(0,-0.48685728)"><g
           id="g494"
           transform="translate(-1.754008,1.0461491)"><g
             transform="matrix(0.16666667,0,0,0.16666667,6,-158.73334)"
             id="g458"><path
               d="m 2,1033.4 c -1.1046,0 -2,0.9 -2,2 v 14 c 0,1.1 0.89543,2 2,2 h 20 c 1.105,0 2,-0.9 2,-2 v -14 c 0,-1.1 -0.895,-2 -2,-2 z"
               fill="#2980b9"
               id="path450" /><path
               d="m 3,1029.4 c -1.1046,0 -2,0.9 -2,2 v 14 c 0,1.1 0.8954,2 2,2 h 11 5 2 c 1.105,0 2,-0.9 2,-2 v -9 -3 c 0,-1.1 -0.895,-2 -2,-2 h -2 -5 -1 l -3,-2 z"
               fill="#2980b9"
               id="path452" /><path
               d="m 23,1042.4 v -8 c 0,-1.1 -0.895,-2 -2,-2 H 10 5 3 c -1.1046,0 -2,0.9 -2,2 v 8 z"
               fill="#bdc3c7"
               id="path454" /><path
               d="m 2,1033.4 c -1.1046,0 -2,0.9 -2,2 v 6 1 6 c 0,1.1 0.89543,2 2,2 h 20 c 1.105,0 2,-0.9 2,-2 v -6 -1 -6 c 0,-1.1 -0.895,-2 -2,-2 z"
               fill="#3498db"
               id="path456" /></g><text
             xml:space="preserve"
             style="font-size:1.11111px;text-align:center;text-anchor:middle;fill:#000000;stroke:#000000;stroke-width:0.04"
             x="8"
             y="15.08333"
             id="text462"><tspan
               sodipodi:role="line"
               id="tspan460"
               style="font-size:1.11111px;stroke-width:0.04"
               x="8"
               y="15.08333">Code</tspan></text></g><text
           xml:space="preserve"
           style="font-size:1.11111px;text-align:center;text-anchor:middle;fill:#429cdd;fill-opacity:1;stroke:none;stroke-width:0.2;stroke-linecap:square;stroke-miterlimit:3;stroke-dasharray:none"
           x="12.471764"
           y="16.001701"
           id="text10380"><tspan
             sodipodi:role="line"
             id="tspan10378"
             style="fill:#429cdd;fill-opacity:1;stroke:none;stroke-width:0.2"
             x="12.471764"
             y="16.001701">in local repo</tspan></text></g><g
         id="g13044"><g
           id="g505"
           transform="translate(-1.754008,0.77778153)"><g
             transform="matrix(0.16666667,0,0,0.16666667,6,-153.73334)"
             id="g377"><g
               id="g373"><path
                 d="m 2,1033.4 c -1.1046,0 -2,0.9 -2,2 v 14 c 0,1.1 0.89543,2 2,2 h 20 c 1.105,0 2,-0.9 2,-2 v -14 c 0,-1.1 -0.895,-2 -2,-2 z"
                 fill="#2980b9"
                 id="path365" /><path
                 d="m 3,1029.4 c -1.1046,0 -2,0.9 -2,2 v 14 c 0,1.1 0.8954,2 2,2 h 11 5 2 c 1.105,0 2,-0.9 2,-2 v -9 -3 c 0,-1.1 -0.895,-2 -2,-2 h -2 -5 -1 l -3,-2 z"
                 fill="#2980b9"
                 id="path367" /><path
                 d="m 23,1042.4 v -8 c 0,-1.1 -0.895,-2 -2,-2 H 10 5 3 c -1.1046,0 -2,0.9 -2,2 v 8 z"
                 fill="#bdc3c7"
                 id="path369" /><path
                 d="m 2,1033.4 c -1.1046,0 -2,0.9 -2,2 v 6 1 6 c 0,1.1 0.89543,2 2,2 h 20 c 1.105,0 2,-0.9 2,-2 v -6 -1 -6 c 0,-1.1 -0.895,-2 -2,-2 z"
                 fill="#3498db"
                 id="path371" /></g><path
               d="m 7.75,1035.4 c -0.2083,0 -0.3854,0 -0.5312,0.2 C 7.0729,1035.7 7,1035.9 7,1036.1 v 9.3 2.2 c 0,0.2 0.0729,0.4 0.2188,0.5 0.1458,0.2 0.3229,0.3 0.5312,0.3 H 12 17.25 c 0.208,0 0.385,-0.1 0.531,-0.3 0.146,-0.1 0.219,-0.3 0.219,-0.5 v -2.2 -5.8 c 0,-0.2 -0.052,-0.4 -0.156,-0.7 -0.104,-0.2 -0.229,-0.4 -0.375,-0.6 l -2.438,-2.4 c -0.146,-0.2 -0.344,-0.3 -0.593,-0.4 -0.251,-0.1 -0.48,-0.1 -0.688,-0.1 H 12 Z m 0.25,1 h 4 1 v 3.2 c 0,0.2 0.073,0.4 0.219,0.5 0.146,0.2 0.323,0.3 0.531,0.3 H 17 v 5 2 H 12 8 v -2 z m 6,0 c 0.151,0.1 0.25,0.1 0.312,0.2 l 2.438,2.4 c 0.062,0.1 0.135,0.2 0.188,0.4 H 14 Z m -4.75,5 H 9.0625 C 9.0156,1041.5 9,1041.5 9,1041.6 v 0.5 c 0,0.1 0.0156,0.2 0.0625,0.2 0.0469,0 0.1146,0.1 0.1875,0.1 H 12 15.75 c 0.073,0 0.141,-0.1 0.188,-0.1 0.046,0 0.062,-0.1 0.062,-0.2 v -0.5 c 0,-0.1 -0.016,-0.1 -0.062,-0.2 H 15.75 12 Z m 0,2 H 9.0625 C 9.0156,1043.5 9,1043.5 9,1043.6 v 0.5 c 0,0.1 0.0156,0.2 0.0625,0.2 0.0469,0 0.1146,0.1 0.1875,0.1 H 12 15.75 c 0.073,0 0.141,-0.1 0.188,-0.1 0.046,0 0.062,-0.1 0.062,-0.2 v -0.5 c 0,-0.1 -0.016,-0.1 -0.062,-0.2 H 15.75 12 Z m 0,2 H 9.0625 C 9.0156,1045.5 9,1045.5 9,1045.6 v 0.5 c 0,0.1 0.0156,0.2 0.0625,0.2 0.0469,0 0.1146,0.1 0.1875,0.1 H 12 15.75 c 0.073,0 0.141,-0.1 0.188,-0.1 0.046,0 0.062,-0.1 0.062,-0.2 v -0.5 c 0,-0.1 -0.016,-0.1 -0.062,-0.2 H 15.75 12 Z"
               fill="#2980b9"
               id="path375" /></g><text
             xml:space="preserve"
             style="font-size:1.11111px;text-align:center;text-anchor:middle;fill:#000000;stroke:#000000;stroke-width:0.04"
             x="8"
             y="19.929996"
             id="text476"><tspan
               sodipodi:role="line"
               id="tspan474"
               style="font-size:1.11111px;stroke-width:0.04"
               x="8"
               y="19.929996">Paper</tspan></text></g><text
           xml:space="preserve"
           style="font-size:1.11111px;text-align:center;text-anchor:middle;fill:#429cdd;fill-opacity:1;stroke:none;stroke-width:0.2;stroke-linecap:square;stroke-miterlimit:3;stroke-dasharray:none"
           x="12.471764"
           y="20.733334"
           id="text12637"><tspan
             sodipodi:role="line"
             id="tspan12635"
             style="fill:#429cdd;fill-opacity:1;stroke:none;stroke-width:0.2"
             x="12.471764"
             y="20.733334">in local repo</tspan></text></g><g
         id="g13018"
         transform="translate(0,-0.21848983)"><g
           id="g1716"
           transform="translate(23.9,-0.02222151)"><path
             d="M 14.933333,14.3 C 14.749233,14.3 14.6,14.45 14.6,14.633333 v 2.333334 C 14.6,17.15 14.749238,17.3 14.933333,17.3 h 3.333334 C 18.450833,17.3 18.6,17.15 18.6,16.966667 V 14.633333 C 18.6,14.45 18.450833,14.3 18.266667,14.3 Z"
             fill="#2980b9"
             id="path1673"
             style="fill:#29b964;fill-opacity:1;stroke-width:0.166667" /><path
             d="m 15.1,13.633333 c -0.1841,0 -0.333333,0.15 -0.333333,0.333334 V 16.3 c 0,0.183333 0.149233,0.333333 0.333333,0.333333 H 16.933333 17.766667 18.1 c 0.184167,0 0.333333,-0.15 0.333333,-0.333333 v -1.5 -0.5 c 0,-0.183333 -0.149166,-0.333333 -0.333333,-0.333333 h -0.333333 -0.833334 -0.166666 l -0.5,-0.333334 z"
             fill="#2980b9"
             id="path1675"
             style="fill:#29b964;fill-opacity:1;stroke-width:0.166667" /><path
             d="m 18.433333,15.8 v -1.333333 c 0,-0.183334 -0.149166,-0.333334 -0.333333,-0.333334 H 16.266667 15.433333 15.1 c -0.1841,0 -0.333333,0.15 -0.333333,0.333334 V 15.8 Z"
             fill="#bdc3c7"
             id="path1677"
             style="fill:#bdc7bd;fill-opacity:1;stroke-width:0.166667" /><path
             d="M 14.933333,14.3 C 14.749233,14.3 14.6,14.45 14.6,14.633333 v 1 0.166667 1 c 0,0.183333 0.149238,0.333333 0.333333,0.333333 h 3.333334 c 0.184166,0 0.333333,-0.15 0.333333,-0.333333 v -1 -0.166667 -1 C 18.6,14.45 18.450833,14.3 18.266667,14.3 Z"
             fill="#3498db"
             id="path1679"
             style="fill:#34db72;fill-opacity:1;stroke-width:0.166667" /><text
             xml:space="preserve"
             style="font-size:1.11111px;text-align:center;text-anchor:middle;fill:#000000;stroke:#000000;stroke-width:0.04"
             x="16.579008"
             y="15.828594"
             id="text580"><tspan
               sodipodi:role="line"
               id="tspan578"
               style="font-size:1.11111px;stroke-width:0.04"
               x="16.579008"
               y="15.828594">Code</tspan></text></g><text
           xml:space="preserve"
           style="font-size:1.11111px;text-align:center;text-anchor:middle;fill:#34db72;fill-opacity:1;stroke:none;stroke-width:0.2;stroke-linecap:square;stroke-miterlimit:3;stroke-dasharray:none"
           x="34.873894"
           y="15.733334"
           id="text12973"><tspan
             sodipodi:role="line"
             id="tspan12971"
             style="fill:#34db72;fill-opacity:1;stroke:none;stroke-width:0.2"
             x="34.873894"
             y="15.733334">in local repo</tspan></text></g><g
         id="g13007"
         transform="translate(0,-0.38888837)"><g
           id="g1896"
           transform="translate(23.9,0.666667)"><g
             id="g1783"
             transform="translate(3.066667,-0.366667)"><path
               d="m 11.866666,19.366667 c -0.1841,0 -0.333333,0.15 -0.333333,0.333333 v 2.333334 c 0,0.183333 0.149238,0.333333 0.333333,0.333333 H 15.2 c 0.184166,0 0.333333,-0.15 0.333333,-0.333333 V 19.7 c 0,-0.183333 -0.149167,-0.333333 -0.333333,-0.333333 z"
               fill="#2980b9"
               id="path1735"
               style="fill:#29b964;fill-opacity:1;stroke-width:0.166667" /><path
               d="M 12.033333,18.7 C 11.849233,18.7 11.7,18.85 11.7,19.033334 v 2.333333 C 11.7,21.55 11.849233,21.7 12.033333,21.7 H 13.866666 14.7 15.033333 c 0.184167,0 0.333333,-0.15 0.333333,-0.333333 v -1.5 -0.5 c 0,-0.183333 -0.149166,-0.333333 -0.333333,-0.333333 H 14.7 13.866666 13.7 L 13.2,18.7 Z"
               fill="#2980b9"
               id="path1737"
               style="fill:#29b964;fill-opacity:1;stroke-width:0.166667" /><path
               d="M 15.366666,20.866667 V 19.533334 C 15.366666,19.35 15.2175,19.2 15.033333,19.2 H 13.2 12.366666 12.033333 C 11.849233,19.2 11.7,19.35 11.7,19.533334 v 1.333333 z"
               fill="#bdc3c7"
               id="path1739"
               style="fill:#bdc7bd;fill-opacity:1;stroke-width:0.166667" /><path
               d="m 11.866666,19.366667 c -0.1841,0 -0.333333,0.15 -0.333333,0.333333 v 1 0.166667 1 C 11.533333,22.05 11.682571,22.2 11.866666,22.2 H 15.2 c 0.184166,0 0.333333,-0.15 0.333333,-0.333333 v -1 V 20.7 v -1 c 0,-0.183333 -0.149167,-0.333333 -0.333333,-0.333333 z"
               fill="#3498db"
               id="path1742"
               style="fill:#34db72;fill-opacity:1;stroke-width:0.166667" /><g
               id="g1775"
               style="fill:#29b964;fill-opacity:1"><path
                 d="m 12.791666,19.591672 c -0.03472,0 -0.06423,0 -0.08853,0.03333 -0.02432,0.01667 -0.03647,0.05 -0.03647,0.08333 v 1.55 0.366665 c 0,0.03333 0.01215,0.06667 0.03647,0.08333 0.0243,0.03333 0.05382,0.05 0.08853,0.05 h 0.708333 0.875 c 0.03467,0 0.06417,-0.01667 0.0885,-0.05 0.02433,-0.01667 0.0365,-0.05 0.0365,-0.08333 v -0.366658 -0.966667 c 0,-0.03333 -0.0087,-0.06667 -0.026,-0.116667 -0.01733,-0.03333 -0.03817,-0.06667 -0.0625,-0.1 l -0.406333,-0.4 c -0.02433,-0.03333 -0.05733,-0.05 -0.09883,-0.06667 -0.04183,-0.01667 -0.08,-0.01667 -0.114666,-0.01667 h -0.291667 z m 0.04167,0.166667 h 0.666667 0.166667 v 0.533332 c 0,0.03333 0.01217,0.06667 0.0365,0.08333 0.02433,0.03333 0.05383,0.05 0.0885,0.05 h 0.541666 v 0.833334 0.333333 h -0.833337 -0.666667 v -0.333333 z m 1,0 c 0.02517,0.01667 0.04167,0.01667 0.052,0.03333 l 0.406334,0.399999 c 0.01033,0.01667 0.0225,0.03333 0.03133,0.06667 H 13.833332 Z M 13.04167,20.591672 H 13.01042 C 13.00262,20.608342 13,20.608342 13,20.625002 v 0.08333 c 0,0.01667 0.0026,0.03333 0.01042,0.03333 0.0078,0 0.0191,0.01667 0.03125,0.01667 h 0.458333 0.625 c 0.01217,0 0.0235,-0.01667 0.03133,-0.01667 0.0077,0 0.01033,-0.01667 0.01033,-0.03333 v -0.08333 c 0,-0.01667 -0.0027,-0.01667 -0.01033,-0.03333 h -0.03133 -0.625 z m 0,0.333333 H 13.01042 C 13.00262,20.941675 13,20.941675 13,20.958335 v 0.08333 c 0,0.01667 0.0026,0.03333 0.01042,0.03333 0.0078,0 0.0191,0.01667 0.03125,0.01667 h 0.458333 0.625 c 0.01217,0 0.0235,-0.01667 0.03133,-0.01667 0.0077,0 0.01033,-0.01667 0.01033,-0.03333 v -0.08333 c 0,-0.01667 -0.0027,-0.01667 -0.01033,-0.03333 h -0.03133 -0.625 z m 0,0.333334 H 13.01042 C 13.00262,21.275009 13,21.275009 13,21.291669 v 0.08333 c 0,0.01667 0.0026,0.03333 0.01042,0.03333 0.0078,0 0.0191,0.01667 0.03125,0.01667 h 0.458333 0.625 c 0.01217,0 0.0235,-0.01667 0.03133,-0.01667 0.0077,0 0.01033,-0.01667 0.01033,-0.03333 v -0.08333 c 0,-0.01667 -0.0027,-0.01667 -0.01033,-0.03333 h -0.03133 -0.625 z"
                 fill="#2980b9"
                 id="path1733"
                 style="fill:#29b964;fill-opacity:1;stroke-width:0.166667" /></g></g><text
             xml:space="preserve"
             style="font-size:1.11111px;text-align:center;text-anchor:middle;fill:#000000;stroke:#000000;stroke-width:0.04"
             x="16.554445"
             y="20.43"
             id="text1746"><tspan
               sodipodi:role="line"
               id="tspan1744"
               style="font-size:1.11111px;stroke-width:0.04"
               x="16.554445"
               y="20.43">Paper</tspan></text></g><text
           xml:space="preserve"
           style="font-size:1.11111px;text-align:center;text-anchor:middle;fill:#34db72;fill-opacity:1;stroke:none;stroke-width:0.2;stroke-linecap:square;stroke-miterlimit:3;stroke-dasharray:none"
           x="35"
           y="21.122223"
           id="text12993"><tspan
             sodipodi:role="line"
             id="tspan12991"
             style="fill:#34db72;fill-opacity:1;stroke:none;stroke-width:0.2"
             x="35"
             y="21.122223">in local repo</tspan></text></g><g
         id="g15338"
         transform="translate(0,-1.1605528)"><g
           id="g15305"
           transform="translate(0,-0.18548696)"><g
             id="g15296"
             transform="translate(26.24004,4.4475932)"><path
               d="m 12.426626,4.5524068 c -0.1841,0 -0.333333,0.15 -0.333333,0.3333333 v 2.3333334 c 0,0.1833333 0.149238,0.3333333 0.333333,0.3333333 h 3.333334 c 0.184166,0 0.333333,-0.15 0.333333,-0.3333333 V 4.8857401 c 0,-0.1833333 -0.149167,-0.3333333 -0.333333,-0.3333333 z"
               fill="#2980b9"
               id="path15288"
               style="fill:#29b964;fill-opacity:1;stroke-width:0.166667" /><path
               d="m 12.593293,3.8857401 c -0.1841,0 -0.333333,0.15 -0.333333,0.3333333 v 2.3333334 c 0,0.1833334 0.149233,0.3333334 0.333333,0.3333334 h 1.833333 0.833334 0.333333 c 0.184167,0 0.333333,-0.15 0.333333,-0.3333334 v -1.5 -0.5 c 0,-0.1833334 -0.149166,-0.3333334 -0.333333,-0.3333334 H 15.25996 14.426626 14.25996 l -0.5,-0.3333333 z"
               fill="#2980b9"
               id="path15290"
               style="fill:#29b964;fill-opacity:1;stroke-width:0.166667" /><path
               d="M 15.926626,6.0524068 V 4.7190734 c 0,-0.1833333 -0.149166,-0.3333333 -0.333333,-0.3333333 H 13.75996 12.926626 12.593293 c -0.1841,0 -0.333333,0.15 -0.333333,0.3333333 v 1.3333334 z"
               fill="#bdc3c7"
               id="path15292"
               style="fill:#bdc7bd;fill-opacity:1;stroke-width:0.166667" /><path
               d="m 12.426626,4.5524068 c -0.1841,0 -0.333333,0.15 -0.333333,0.3333333 v 1 0.1666667 1 c 0,0.1833334 0.149238,0.3333334 0.333333,0.3333334 h 3.333334 c 0.184166,0 0.333333,-0.15 0.333333,-0.3333334 v -1 -0.1666667 -1 c 0,-0.1833333 -0.149167,-0.3333333 -0.333333,-0.3333333 z"
               fill="#3498db"
               id="path15294"
               style="fill:#34db72;fill-opacity:1;stroke-width:0.166667" /></g><text
             xml:space="preserve"
             style="font-size:1.11111px;text-align:center;text-anchor:middle;fill:#000000;stroke:#000000;stroke-width:0.04"
             x="40.324444"
             y="10.557777"
             id="text596"><tspan
               sodipodi:role="line"
               id="tspan594"
               style="font-size:1.11111px;stroke-width:0.04"
               x="40.324444"
               y="10.557777">Data</tspan></text></g><g
           id="g485"
           transform="translate(-1.754008,-0.18548378)"><g
             transform="matrix(0.16666667,0,0,0.16666667,6,-163.23334)"
             id="g472"><path
               d="m 2,1033.4 c -1.1046,0 -2,0.9 -2,2 v 14 c 0,1.1 0.89543,2 2,2 h 20 c 1.105,0 2,-0.9 2,-2 v -14 c 0,-1.1 -0.895,-2 -2,-2 z"
               fill="#2980b9"
               id="path464" /><path
               d="m 3,1029.4 c -1.1046,0 -2,0.9 -2,2 v 14 c 0,1.1 0.8954,2 2,2 h 11 5 2 c 1.105,0 2,-0.9 2,-2 v -9 -3 c 0,-1.1 -0.895,-2 -2,-2 h -2 -5 -1 l -3,-2 z"
               fill="#2980b9"
               id="path466" /><path
               d="m 23,1042.4 v -8 c 0,-1.1 -0.895,-2 -2,-2 H 10 5 3 c -1.1046,0 -2,0.9 -2,2 v 8 z"
               fill="#bdc3c7"
               id="path468" /><path
               d="m 2,1033.4 c -1.1046,0 -2,0.9 -2,2 v 6 1 6 c 0,1.1 0.89543,2 2,2 h 20 c 1.105,0 2,-0.9 2,-2 v -6 -1 -6 c 0,-1.1 -0.895,-2 -2,-2 z"
               fill="#3498db"
               id="path470" /></g><text
             xml:space="preserve"
             style="font-size:1.11111px;text-align:center;text-anchor:middle;fill:#000000;stroke:#000000;stroke-width:0.04"
             x="8"
             y="10.557775"
             id="text394"><tspan
               sodipodi:role="line"
               id="tspan392"
               style="font-size:1.11111px;stroke-width:0.04"
               x="8"
               y="10.557775">Data</tspan></text></g><g
           id="g15274"
           transform="translate(-0.04166871,-0.72881443)"><path
             style="fill:#429cdd;fill-opacity:1;fill-rule:evenodd;stroke:#429cdd;stroke-width:0.186293;stroke-linecap:square;stroke-linejoin:miter;stroke-miterlimit:3;stroke-dasharray:none;stroke-opacity:1;marker-end:url(#Arrow4)"
             d="M 9.4654707,11.203924 H 17.274126"
             id="path667"
             inkscape:connector-type="polyline"
             inkscape:connector-curvature="0" /><text
             xml:space="preserve"
             style="font-size:1.11111px;text-align:center;text-anchor:middle;fill:#3498db;fill-opacity:1;stroke:none;stroke-width:0.2;stroke-linecap:square;stroke-miterlimit:3;stroke-dasharray:none;stroke-opacity:1"
             x="13.410261"
             y="10.46274"
             id="text13156"><tspan
               sodipodi:role="line"
               id="tspan13154"
               style="fill:#3498db;fill-opacity:1;stroke:none;stroke-width:0.2"
               x="13.410261"
               y="10.46274">@e309c6</tspan></text></g><g
           id="g15279"
           transform="translate(-0.12499791,-0.7710365)"><path
             style="fill:#34db72;fill-opacity:1;fill-rule:evenodd;stroke:#34db72;stroke-width:0.186293;stroke-linecap:square;stroke-linejoin:miter;stroke-miterlimit:3;stroke-dasharray:none;stroke-opacity:1;marker-end:url(#Arrow4)"
             d="M 37.280521,11.245591 H 29.471865"
             id="path12907"
             inkscape:connector-type="polyline"
             inkscape:connector-curvature="0" /><text
             xml:space="preserve"
             style="font-size:1.11111px;text-align:center;text-anchor:middle;fill:#34db72;fill-opacity:1;stroke:none;stroke-width:0.2;stroke-linecap:square;stroke-miterlimit:3;stroke-dasharray:none;stroke-opacity:1"
             x="33.417953"
             y="10.504406"
             id="text13383"><tspan
               sodipodi:role="line"
               id="tspan13381"
               style="fill:#34db72;fill-opacity:1;stroke:none;stroke-width:0.2"
               x="33.417953"
               y="10.504406">@c47311</tspan></text></g><g
           id="g6532"
           transform="translate(6.4644525,6)"><g
             id="g5083"
             transform="matrix(0.33239235,0,0,0.33239235,5.5031768,1.0169377)"><path
               style="fill:#ecdbfd;stroke-width:0.0416667"
               d="m 26.133341,17.994542 c -2.082245,-0.02683 -2.086259,-0.02724 -2.833334,-0.288719 -1.329008,-0.465165 -2.497444,-1.506391 -3.103589,-2.765694 -0.346199,-0.719249 -0.50024,-1.362278 -0.53003,-2.21256 -0.08378,-2.39133 1.330478,-4.4677976 3.633619,-5.3350151 0.672357,-0.2531675 1.215931,-0.352485 1.929179,-0.352485 h 0.328296 l 0.04952,-0.40625 c 0.185991,-1.52579 1.068139,-2.8097975 2.401338,-3.4952595 0.67373,-0.3463971 1.717491,-0.58641 2.333333,-0.53655 0.454567,0.036803 0.888906,0.1295337 1.286687,0.2747062 0.183387,0.066928 0.338186,0.1216867 0.343999,0.1216867 0.0058,0 0.128787,-0.1728067 0.273275,-0.384015 0.675879,-0.9879792 1.733976,-1.8467413 2.834449,-2.3004659 0.708971,-0.2923083 1.662382,-0.4821858 2.421149,-0.4821858 0.474199,0 1.57272,0.1439083 1.91985,0.2515042 1.007367,0.3122416 1.920779,0.8888183 2.712258,1.7120683 0.848283,0.8823358 1.379355,1.89868 1.651944,3.1614275 0.08052,0.3730037 0.09471,0.5646817 0.09625,1.30022 l 0.0018,0.86272 0.3125,0.069279 c 2.036038,0.4513754 3.715084,2.1495195 4.148705,4.1958934 0.280028,1.321533 0.05007,2.804007 -0.606349,3.908921 -0.218262,0.36739 -0.835823,1.088578 -1.188009,1.387359 -0.906296,0.768866 -1.948146,1.212664 -3.075869,1.310232 -0.202045,0.01748 -0.376589,0.01684 -0.387875,-0.0014 -0.02222,-0.03595 -2.112691,-0.04723 -2.148334,-0.01158 C 40.926213,17.99027 39.964066,18 38.8,18 c -1.164066,0 -2.126212,-0.0097 -2.138103,-0.02162 -0.01189,-0.01189 -0.493496,-0.02162 -1.070232,-0.02162 -0.576736,0 -1.05834,0.0097 -1.070231,0.02162 C 34.509544,17.99027 33.547397,18 32.383332,18 c -1.164066,0 -2.126213,-0.0097 -2.138103,-0.02162 -0.03434,-0.03434 -2.111708,-0.02506 -2.155647,0.0096 -0.02177,0.01719 -0.902084,0.02014 -1.95625,0.0066 z m -2.004759,-2.115881 c 0.0575,-0.06354 0.0684,-0.146946 0.05854,-0.447917 l -0.01212,-0.369842 -0.333333,-0.0026 c -0.470104,-0.0038 -0.652764,-0.114408 -0.855617,-0.518233 -0.0518,-0.103125 -0.160708,-0.248438 -0.242012,-0.322917 -0.109301,-0.100127 -0.128875,-0.135416 -0.07511,-0.135416 0.138621,0 0.309311,0.122988 0.458077,0.33006 0.08222,0.114448 0.211034,0.240768 0.286246,0.280712 0.152569,0.08103 0.551064,0.09633 0.676754,0.02599 0.111825,-0.06258 0.321332,-0.538056 0.258531,-0.586733 -0.02669,-0.02069 -0.159382,-0.05914 -0.294861,-0.08545 -0.751645,-0.145949 -1.157287,-0.673228 -1.162684,-1.511329 -0.0018,-0.284219 0.01414,-0.352829 0.140973,-0.60564 0.128809,-0.256751 0.143165,-0.320339 0.144323,-0.639277 0.0015,-0.413871 0.03607,-0.541667 0.146512,-0.541667 0.108563,0 0.400213,0.117999 0.6017,0.243444 0.159186,0.09911 0.178028,0.101417 0.44869,0.055 0.356422,-0.06112 0.84219,-0.06199 1.185916,-0.0021 0.262829,0.04577 0.269428,0.04455 0.565913,-0.104406 0.164991,-0.08289 0.360524,-0.162247 0.434518,-0.176342 0.119889,-0.02284 0.13962,-0.01261 0.181243,0.09399 0.02758,0.07063 0.03822,0.249943 0.02597,0.43789 -0.01937,0.297321 -0.01294,0.330049 0.09766,0.497105 0.164914,0.249105 0.222883,0.527224 0.192368,0.922936 -0.05915,0.767033 -0.510471,1.249185 -1.266278,1.35278 -0.10194,0.01397 -0.194376,0.04894 -0.205412,0.0777 -0.01104,0.02876 0.02306,0.133798 0.07576,0.233416 0.08766,0.165677 0.09599,0.235666 0.09774,0.820688 0.0018,0.587044 0.0087,0.644601 0.08416,0.700889 0.113509,0.08463 0.29858,0.04798 0.658159,-0.130339 0.895896,-0.444276 1.568321,-1.274002 1.824884,-2.251782 0.10466,-0.398864 0.124893,-1.158576 0.04106,-1.541666 C 28.084166,10.685772 27.1156,9.6693231 25.841674,9.3275494 25.397282,9.208326 24.599243,9.1986423 24.175007,9.3073248 c -0.625187,0.1601637 -1.349321,0.5847129 -1.73391,1.0165662 -1.284816,1.442715 -1.202584,3.577333 0.187569,4.868963 0.33294,0.309345 0.635785,0.507419 1.012915,0.662494 0.293318,0.120611 0.394561,0.125458 0.487001,0.02331 z m 23.475859,-0.494842 c 0.259725,-0.367676 0.565923,-1.153873 0.701854,-1.802083 0.09176,-0.437588 0.102533,-1.497995 0.01989,-1.958334 C 47.99293,9.7670685 46.69321,8.1727802 44.966674,7.502491 44.737507,7.4135218 44.400007,7.3071777 44.216674,7.2661702 44.033341,7.2251627 43.863094,7.1766168 43.838348,7.1582902 43.807975,7.1357952 43.799586,6.908846 43.812528,6.4597777 43.8347,5.6904573 43.783505,5.198746 43.613946,4.5524643 43.323596,3.4457852 42.711984,2.4159052 41.8728,1.6205868 41.402537,1.1749056 40.950281,0.8513673 40.398404,0.5658223 39.956649,0.3372552 39.010526,0.0031614 38.956891,0.0567964 c -0.01614,0.016138 0.03547,0.079914 0.114694,0.1417242 1.313142,1.0245571 2.416287,2.5809058 2.93554,4.1415475 0.312253,0.9384929 0.438716,1.7456021 0.438716,2.7999721 V 7.743296 l 0.197916,0.026318 c 0.341989,0.045475 1.060172,0.2331333 1.385417,0.3620038 2.221047,0.8800366 3.421262,2.7268892 3.528331,5.4292852 0.02201,0.55564 -0.03455,1.655414 -0.09589,1.864584 -0.03271,0.111513 0.0521,0.08677 0.14283,-0.04167 z M 25.56282,7.3213189 25.550007,7.1442356 25.133341,7.1320006 c -0.229167,-0.00673 -0.547917,0.010698 -0.708334,0.038727 l -0.291666,0.050962 0.4375,0.053702 c 0.240625,0.029536 0.540625,0.090427 0.666666,0.1353121 0.33137,0.1180067 0.340144,0.1155958 0.325313,-0.089385 z m 6.257421,-3.9467283 c 0.06908,-0.1368467 0.1256,-0.2593879 0.1256,-0.2723142 0,-0.045368 -0.399561,-0.1962962 -0.770834,-0.2911708 -0.41611,-0.1063321 -1.020833,-0.1767258 -1.020833,-0.1188312 0,0.020348 0.138231,0.079905 0.30718,0.1323499 0.405318,0.1258167 0.789902,0.3566734 1.000941,0.6008409 0.09408,0.1088429 0.184838,0.1979054 0.201696,0.1979166 0.01686,1.13e-5 0.08717,-0.1119449 0.15625,-0.2487912 z"
               id="path4494-3" /><path
               style="fill:#ceb6f1;stroke-width:0.0416667"
               d="m 23.641581,15.855347 c -0.37713,-0.155075 -0.679975,-0.353149 -1.012915,-0.662494 -1.390153,-1.29163 -1.472385,-3.426248 -0.187569,-4.868963 0.384589,-0.4318532 1.108723,-0.8564023 1.73391,-1.0165661 0.424236,-0.1086825 1.222275,-0.098999 1.666667,0.020225 1.070528,0.2872054 1.964894,1.0798951 2.348487,2.0815021 0.18053,0.471383 0.231871,0.764557 0.227252,1.297685 -0.0051,0.588184 -0.101967,0.990948 -0.365785,1.520833 -0.334219,0.671289 -0.872646,1.207192 -1.550716,1.543448 -0.359579,0.178315 -0.54465,0.214967 -0.658159,0.130339 -0.0755,-0.05629 -0.08241,-0.113845 -0.08416,-0.700889 -0.0017,-0.585022 -0.01008,-0.655011 -0.09774,-0.820688 -0.05271,-0.09962 -0.0868,-0.204655 -0.07576,-0.233416 0.01104,-0.02876 0.103472,-0.06372 0.205412,-0.0777 0.755807,-0.103595 1.207128,-0.585747 1.266278,-1.352781 0.03052,-0.395712 -0.02745,-0.673831 -0.192368,-0.922936 -0.110596,-0.167056 -0.117025,-0.199784 -0.09766,-0.497105 0.01225,-0.187947 0.0016,-0.367255 -0.02597,-0.437891 -0.04162,-0.106593 -0.06135,-0.116825 -0.181243,-0.09399 -0.07399,0.01409 -0.269527,0.09345 -0.434518,0.176342 -0.296485,0.148958 -0.303084,0.150175 -0.565913,0.104405 -0.343726,-0.05985 -0.829494,-0.05898 -1.185916,0.0021 -0.270662,0.04641 -0.289504,0.0441 -0.44869,-0.055 -0.201487,-0.125444 -0.493137,-0.243443 -0.6017,-0.243443 -0.110443,0 -0.14501,0.127796 -0.146512,0.541667 -0.0012,0.318938 -0.01551,0.382526 -0.144323,0.639277 -0.126832,0.252811 -0.142803,0.321421 -0.140973,0.60564 0.0054,0.838101 0.411039,1.36538 1.162684,1.511329 0.135479,0.02631 0.268167,0.06476 0.294861,0.08545 0.0628,0.04868 -0.146706,0.524152 -0.258531,0.586733 -0.12569,0.07034 -0.524185,0.05504 -0.676754,-0.02599 -0.07521,-0.03994 -0.204023,-0.166264 -0.286246,-0.280712 -0.148766,-0.207072 -0.319456,-0.33006 -0.458077,-0.33006 -0.05376,0 -0.03419,0.03529 0.07511,0.135416 0.0813,0.07448 0.190208,0.219792 0.242011,0.322917 0.202854,0.403825 0.385513,0.514448 0.855616,0.518184 l 0.333334,0.0027 0.01212,0.369842 c 0.01789,0.546056 -0.07478,0.618179 -0.545542,0.424603 z m 0.462062,-0.362599 0.01197,-0.35982 -0.303635,0.0017 c -0.46476,0.0026 -0.672806,-0.123472 -0.877854,-0.53206 -0.0575,-0.114584 -0.182773,-0.278403 -0.278377,-0.364042 -0.183591,-0.164456 -0.189224,-0.240124 -0.01788,-0.240124 0.166685,0 0.315388,0.09999 0.550209,0.369969 0.256349,0.294732 0.438717,0.37356 0.724667,0.313238 0.155416,-0.03279 0.189478,-0.0612 0.269696,-0.224949 0.0505,-0.103084 0.09292,-0.207878 0.09427,-0.232877 0.0014,-0.025 -0.105353,-0.06911 -0.237124,-0.09803 -0.528689,-0.11602 -0.885762,-0.384456 -1.076364,-0.809173 -0.09163,-0.204185 -0.118255,-0.335697 -0.133954,-0.661714 -0.02105,-0.437172 0.03014,-0.653987 0.221711,-0.939091 0.07961,-0.118476 0.08699,-0.163113 0.05515,-0.333333 -0.04215,-0.225317 0.01944,-0.600097 0.111125,-0.67619 0.08144,-0.06759 0.275768,-0.01984 0.62846,0.15443 0.29419,0.145365 0.297229,0.145881 0.591315,0.100251 0.378708,-0.05876 0.730709,-0.05818 1.093942,0.0018 l 0.288685,0.04767 0.302674,-0.150541 c 0.166471,-0.0828 0.371372,-0.162286 0.455337,-0.17664 0.213897,-0.03657 0.263414,0.06472 0.266119,0.544331 0.0019,0.331769 0.0153,0.397403 0.116447,0.56934 0.166104,0.282343 0.221032,0.632017 0.162434,1.034058 -0.104591,0.717597 -0.447103,1.099405 -1.14564,1.277079 -0.143196,0.03642 -0.27435,0.07459 -0.291453,0.08482 -0.0171,0.01023 0.0016,0.07847 0.04167,0.151651 0.05746,0.105065 0.07715,0.272353 0.0936,0.795316 0.02471,0.785683 0.03302,0.800272 0.384987,0.676121 1.041712,-0.367451 1.895925,-1.415002 2.098148,-2.573035 0.407766,-2.335096 -1.680304,-4.353937 -4.006652,-3.8738041 -0.679934,0.1403304 -1.292187,0.4837846 -1.775249,0.9958551 -0.349485,0.370474 -0.57707,0.753932 -0.746888,1.258435 -0.113557,0.337362 -0.136095,0.472768 -0.152572,0.916667 -0.01599,0.430843 -0.0043,0.583533 0.06743,0.883719 0.153152,0.640587 0.439088,1.164304 0.880389,1.61251 0.415836,0.422342 1.131987,0.8459 1.396238,0.825785 l 0.125,-0.0095 0.01197,-0.359821 z m 23.357968,-0.06726 c 0.06135,-0.20917 0.117908,-1.308943 0.09589,-1.864584 C 47.450436,10.858507 46.250221,9.0116539 44.029174,8.1316173 43.703929,8.0027468 42.985746,7.8150885 42.643757,7.7696135 L 42.445841,7.743296 V 7.1400402 c 0,-1.05437 -0.126463,-1.8614792 -0.438716,-2.7999721 -0.519253,-1.5606417 -1.622398,-3.1169904 -2.93554,-4.1415475 -0.07922,-0.06181 -0.130832,-0.1255858 -0.114694,-0.1417242 0.01614,-0.016138 0.249144,0.041118 0.517791,0.1272354 1.715918,0.5500555 3.127623,1.8458001 3.858836,3.5418638 0.357862,0.8300683 0.509015,1.692755 0.47901,2.7338821 -0.01294,0.4490683 -0.0046,0.6760175 0.02582,0.6985125 0.02475,0.018327 0.194993,0.066872 0.378326,0.10788 2.065094,0.4619141 3.726439,2.2234033 4.109513,4.3572318 0.08264,0.460339 0.07187,1.520746 -0.01989,1.958334 -0.135931,0.64821 -0.442129,1.434407 -0.701854,1.802083 -0.09073,0.12844 -0.175536,0.15318 -0.14283,0.04167 z M 25.237507,7.4107031 C 25.111466,7.3658177 24.811466,7.3049273 24.570841,7.275391 l -0.4375,-0.053702 0.291666,-0.050962 c 0.160417,-0.028029 0.479167,-0.045456 0.708334,-0.038726 l 0.416666,0.012235 0.01281,0.1770833 c 0.01483,0.20498 0.0061,0.2073909 -0.325313,0.089384 z M 31.462295,3.4254652 C 31.251256,3.1812977 30.866672,2.950441 30.461354,2.8246243 c -0.168949,-0.052445 -0.30718,-0.112002 -0.30718,-0.1323499 0,-0.057895 0.604723,0.012499 1.020833,0.1188312 0.371273,0.094875 0.770834,0.2458029 0.770834,0.2911708 0,0.052545 -0.25344,0.5211242 -0.28185,0.5211054 -0.01686,-1.12e-5 -0.107621,-0.089074 -0.201696,-0.1979166 z"
               id="path4490-6" /><path
               style="fill:#6945b4;stroke-width:0.0416667"
               d="m 23.585775,15.752121 c -0.971925,-0.453786 -1.645286,-1.280807 -1.895729,-2.328333 -0.07177,-0.300186 -0.08342,-0.452876 -0.06743,-0.883719 0.01648,-0.443898 0.03902,-0.579304 0.152572,-0.916667 0.169818,-0.504502 0.397403,-0.887961 0.746888,-1.258435 0.770149,-0.8163977 1.875944,-1.1994393 2.971791,-1.0294127 2.441695,0.3788421 3.657552,3.1656667 2.279832,5.2255287 -0.367605,0.549615 -0.997317,1.053614 -1.567876,1.254871 -0.351965,0.124151 -0.360272,0.109562 -0.384987,-0.67612 -0.01645,-0.522964 -0.03614,-0.690251 -0.0936,-0.795317 -0.04002,-0.07318 -0.05877,-0.141421 -0.04167,-0.151651 0.0171,-0.01023 0.148257,-0.0484 0.291453,-0.08482 0.698537,-0.177673 1.041049,-0.559481 1.14564,-1.277078 0.0586,-0.402042 0.0037,-0.751716 -0.162434,-1.034058 -0.101151,-0.171937 -0.114575,-0.237572 -0.116447,-0.569341 -0.0027,-0.479613 -0.05222,-0.580897 -0.266119,-0.54433 -0.08397,0.01435 -0.288866,0.09384 -0.455337,0.176639 l -0.302668,0.150542 -0.288685,-0.04768 c -0.363233,-0.05999 -0.715235,-0.06057 -1.093943,-0.0018 -0.294085,0.04563 -0.297125,0.04511 -0.591314,-0.100252 -0.352692,-0.174273 -0.547015,-0.222023 -0.62846,-0.15443 -0.09169,0.07609 -0.153279,0.450873 -0.111126,0.67619 0.03184,0.170221 0.02446,0.214858 -0.05515,0.333333 -0.191574,0.285105 -0.242762,0.50192 -0.22171,0.939091 0.0157,0.326017 0.04232,0.457529 0.133954,0.661715 0.190602,0.424717 0.547675,0.693152 1.076364,0.809172 0.131771,0.02892 0.238477,0.07303 0.237124,0.09803 -0.0013,0.025 -0.04378,0.129794 -0.09427,0.232877 -0.08022,0.163753 -0.114279,0.192163 -0.269696,0.224949 -0.28595,0.06032 -0.468318,-0.01851 -0.724667,-0.313237 -0.234821,-0.269977 -0.383524,-0.369968 -0.550209,-0.369968 -0.171347,0 -0.165714,0.07567 0.01788,0.240125 0.0956,0.08564 0.220874,0.249459 0.278377,0.364042 0.205048,0.408588 0.413094,0.534685 0.877854,0.532068 l 0.303636,-0.0017 -0.01197,0.35982 -0.01197,0.359821 -0.125,0.0095 c -0.06875,0.0052 -0.240155,-0.04425 -0.3809,-0.109963 z"
               id="path4482-7" /></g><text
             xml:space="preserve"
             style="font-size:1.11111px;text-align:center;text-anchor:middle;fill:#6945b4;fill-opacity:1;stroke:#000000;stroke-width:0.2;stroke-linecap:square;stroke-miterlimit:3;stroke-dasharray:none;stroke-opacity:1"
             x="17.419447"
             y="4.2728462"
             id="text5207-5"><tspan
               sodipodi:role="line"
               id="tspan5205"
               style="stroke:none;stroke-width:0.2"
               x="17.419447"
               y="4.2728462">git (lfs)</tspan></text></g></g></g></g></svg>
