<?xml version="1.0" encoding="UTF-8" standalone="no"?>
<!-- Created with Inkscape (http://www.inkscape.org/) -->

<svg
   width="5.1112394in"
   height="3.6946335in"
   viewBox="0 0 20.444958 14.778534"
   version="1.1"
   id="svg658"
   xml:space="preserve"
   inkscape:version="1.2.2 (b0a8486541, 2022-12-01)"
   sodipodi:docname="use-case-data-separate.svg"
   xmlns:inkscape="http://www.inkscape.org/namespaces/inkscape"
   xmlns:sodipodi="http://sodipodi.sourceforge.net/DTD/sodipodi-0.dtd"
   xmlns="http://www.w3.org/2000/svg"
   xmlns:svg="http://www.w3.org/2000/svg"><sodipodi:namedview
     id="namedview660"
     pagecolor="#ffffff"
     bordercolor="#000000"
     borderopacity="0.25"
     inkscape:showpageshadow="2"
     inkscape:pageopacity="0.0"
     inkscape:pagecheckerboard="0"
     inkscape:deskcolor="#d1d1d1"
     inkscape:document-units="in"
     showgrid="true"
     inkscape:zoom="1.829812"
     inkscape:cx="-253.85122"
     inkscape:cy="515.89999"
     inkscape:window-width="3776"
     inkscape:window-height="2111"
     inkscape:window-x="64"
     inkscape:window-y="0"
     inkscape:window-maximized="1"
     inkscape:current-layer="layer1"><inkscape:grid
       type="xygrid"
       id="grid779"
       units="in"
       spacingx="0.2"
       originx="-27.704044"
       originy="4.5118224"
       spacingy="0.2" /></sodipodi:namedview><defs
     id="defs655"><marker
       style="overflow:visible"
       id="marker6403"
       refX="0"
       refY="0"
       orient="auto-start-reverse"
       inkscape:stockid="Arrow4"
       markerWidth="5"
       markerHeight="6"
       viewBox="0 0 5 6"
       inkscape:isstock="true"
       inkscape:collect="always"
       preserveAspectRatio="xMidYMid"><path
         style="fill:context-stroke;fill-rule:evenodd;stroke:none"
         d="m 1,0 -3,3 h -2 l 3,-3 -3,-3 h 2 z"
         id="path6401" /></marker><marker
       style="overflow:visible"
       id="marker6781"
       refX="0"
       refY="0"
       orient="auto-start-reverse"
       inkscape:stockid="Arrow4"
       markerWidth="5"
       markerHeight="6"
       viewBox="0 0 5 6"
       inkscape:isstock="true"
       inkscape:collect="always"
       preserveAspectRatio="xMidYMid"><path
         style="fill:context-stroke;fill-rule:evenodd;stroke:none"
         d="m 1,0 -3,3 h -2 l 3,-3 -3,-3 h 2 z"
         id="path6779" /></marker></defs><g
     inkscape:label="Layer 1"
     inkscape:groupmode="layer"
     id="layer1"
     transform="translate(-27.704044,4.5118224)"><g
       id="g7130"
       transform="translate(-3.8000002,-21.2)"><g
         id="g6942"><g
           id="g6649"
           transform="translate(29.477259,14.643214)"><g
             id="g6623"
             transform="matrix(0.12026784,0,0,0.12026784,1.8259397,1.2271433)"
             style="fill:#6945b4;fill-opacity:1"><g
               id="g6621"
               style="fill:#6945b4;fill-opacity:1"><path
                 id="path6619"
                 style="fill:#6945b4;fill-opacity:1"
                 d="M 2.0100098,34.849976 2.2600098,34 10.26001,7 40.069989,6.7999915 42.085989,9 H 11.76001 L 4.3499756,34 H 47.690002 L 43.219971,18 40.069989,6.7999915 h 2.016 L 45.299988,18 49.769959,34 50.01001,34.849976 50.330017,36 H 1.6699829 Z"
                 sodipodi:nodetypes="ccccccccccccccccc" /></g></g><g
             id="g6627"
             transform="matrix(0.12026784,0,0,0.12026784,1.8259397,1.2271433)"
             style="fill:#6945b4;fill-opacity:1"><path
               d="M 2.0100098,34 V 50 H 50.01001 V 34 Z M 48.01001,48 H 4.0100098 V 36 H 48.01001 Z"
               fill="#0096e6"
               id="path6625"
               style="fill:#6945b4;fill-opacity:1" /></g><g
             id="g6631"
             transform="matrix(0.12026784,0,0,0.12026784,1.8259397,1.2271433)"
             style="fill:#ecdbfd;fill-opacity:1"><path
               d="M 4.0100098,36 V 48 H 48.01001 V 36 Z M 11.01001,46 H 7.0100098 V 44 H 11.01001 Z m 34,-5 H 7.0100098 V 39 H 45.01001 Z"
               fill="#d0e8f9"
               id="path6629"
               style="fill:#ecdbfd;fill-opacity:1" /></g><g
             id="g6637"
             transform="matrix(0.12026784,0,0,0.12026784,1.8259397,1.2271433)"
             style="fill:#6945b4;fill-opacity:1"><g
               id="g6635"
               style="fill:#6945b4;fill-opacity:1"><rect
                 fill="#0096e6"
                 height="2"
                 width="4"
                 x="7.0100098"
                 y="44"
                 id="rect6633"
                 style="fill:#6945b4;fill-opacity:1" /></g></g><g
             id="g6643"
             transform="matrix(0.12026784,0,0,0.12026784,1.8259397,1.2271433)"
             style="fill:#6945b4;fill-opacity:1"><g
               id="g6641"
               style="fill:#6945b4;fill-opacity:1"><rect
                 fill="#0096e6"
                 height="2"
                 width="38"
                 x="7.0100098"
                 y="39"
                 id="rect6639"
                 style="fill:#6945b4;fill-opacity:1" /></g></g><text
             xml:space="preserve"
             style="font-size:1.11111px;text-align:center;text-anchor:middle;fill:#6945b4;fill-opacity:1;stroke:#000000;stroke-width:0.2;stroke-linecap:square;stroke-miterlimit:3"
             x="4.9227409"
             y="3.156786"
             id="text6647"><tspan
               sodipodi:role="line"
               id="tspan6645"
               style="fill:#6945b4;fill-opacity:1;stroke:none;stroke-width:0.2"
               x="4.9227409"
               y="3.156786">Data </tspan><tspan
               sodipodi:role="line"
               style="fill:#6945b4;fill-opacity:1;stroke:none;stroke-width:0.2"
               x="4.9227409"
               y="4.5456734"
               id="tspan7010">(v1)</tspan></text></g><g
           id="g6673"
           transform="translate(25.329965,16.168246)"><path
             class="cls-1"
             d="M 10.475026,14.004383 H 7.709128 A 0.59742373,0.59742373 0 0 1 7.100457,13.389461 v -2.009743 c 0.0162,-0.389951 0.249958,-0.62492 0.624919,-0.62492 h 0.657418 a 0.64866721,0.64866721 0 0 1 0.603672,0.30496 l 0.146232,0.194975 h 1.353577 c 0.374952,0.0162 0.589923,0.23247 0.613671,0.608673 0,0 0,0.0099 0,0.0162 v 1.499809 a 0.60742245,0.60742245 0 0 1 -0.608674,0.624919 z m -2.7409,-0.499938 h 2.73215 c 0.109996,-0.0087 0.124994,-0.04125 0.133724,-0.136242 v -1.47981 C 10.5925,11.772158 10.5712,11.763399 10.475005,11.75467 H 9.007713 A 0.24996808,0.24996808 0 0 1 8.807728,11.65469 L 8.582757,11.354731 c -0.065,-0.09248 -0.08249,-0.09998 -0.194975,-0.09998 H 7.725376 c -0.08249,0 -0.124994,0 -0.124994,0.136242 v 1.988497 c 0,0.08873 0.0174,0.116235 0.133723,0.124994 z"
             id="path6667"
             style="fill:#6945b4;fill-opacity:1;stroke-width:0.124984" /><text
             xml:space="preserve"
             style="font-size:1.11111px;text-align:center;text-anchor:middle;fill:#6945b4;fill-opacity:1;stroke:none;stroke-width:0.2;stroke-linecap:square;stroke-miterlimit:3;stroke-dasharray:none;stroke-opacity:1"
             x="9.1668644"
             y="15.031798"
             id="text6671"><tspan
               sodipodi:role="line"
               id="tspan6669"
               style="stroke-width:0.2"
               x="9.1668644"
               y="15.031798">Project 1</tspan></text></g><path
           style="display:inline;fill:none;fill-rule:evenodd;stroke:#000000;stroke-width:0.2;stroke-linecap:butt;stroke-linejoin:miter;stroke-dasharray:none;stroke-opacity:1;marker-end:url(#marker6403)"
           d="m 34.430163,19.285963 0,8.093682"
           id="path6693"
           inkscape:connector-type="polyline"
           inkscape:connector-curvature="0"
           sodipodi:nodetypes="cc"
           inkscape:connection-start="#g6649"
           inkscape:connection-end="#g6673" /></g><g
         id="g6965"><g
           id="g6681"
           transform="translate(25.286988,16.007186)"><path
             class="cls-1"
             d="m 17.97508,14.165443 h -2.765898 a 0.59742373,0.59742373 0 0 1 -0.608671,-0.614922 v -2.009743 c 0.0162,-0.389951 0.249958,-0.62492 0.624919,-0.62492 h 0.657418 a 0.64866721,0.64866721 0 0 1 0.603672,0.30496 l 0.146232,0.194975 h 1.353577 c 0.374952,0.0162 0.589923,0.23247 0.613671,0.608673 0,0 0,0.0099 0,0.0162 v 1.499809 a 0.60742245,0.60742245 0 0 1 -0.608674,0.624919 z m -2.7409,-0.499938 h 2.73215 c 0.109996,-0.0087 0.124994,-0.04125 0.133724,-0.136242 v -1.47981 c -0.0075,-0.116235 -0.0288,-0.124994 -0.124995,-0.133723 h -1.467292 a 0.24996808,0.24996808 0 0 1 -0.199985,-0.09998 l -0.224971,-0.299959 c -0.065,-0.09248 -0.08249,-0.09998 -0.194975,-0.09998 H 15.22543 c -0.08249,0 -0.124994,0 -0.124994,0.136242 v 1.988497 c 0,0.08873 0.0174,0.116235 0.133723,0.124994 z"
             id="path6675"
             style="fill:#6945b4;fill-opacity:1;stroke-width:0.124984" /><text
             xml:space="preserve"
             style="font-size:1.11111px;text-align:center;text-anchor:middle;fill:#6945b4;fill-opacity:1;stroke:none;stroke-width:0.2;stroke-linecap:square;stroke-miterlimit:3;stroke-dasharray:none;stroke-opacity:1"
             x="16.575253"
             y="15.192859"
             id="text6679"><tspan
               sodipodi:role="line"
               id="tspan6677"
               style="stroke-width:0.2"
               x="16.575253"
               y="15.192859">Project 2</tspan></text></g><g
           id="g6761"
           transform="translate(36.934337,14.643214)"><g
             id="g6735"
             transform="matrix(0.12026784,0,0,0.12026784,1.8259397,1.2271433)"
             style="fill:#6945b4;fill-opacity:1"><g
               id="g6733"
               style="fill:#6945b4;fill-opacity:1"><path
                 id="path6731"
                 style="fill:#6945b4;fill-opacity:1"
                 d="M 2.0100098,34.849976 2.2600098,34 10.26001,7 40.069989,6.7999915 42.085989,9 H 11.76001 L 4.3499756,34 H 47.690002 L 43.219971,18 40.069989,6.7999915 h 2.016 L 45.299988,18 49.769959,34 50.01001,34.849976 50.330017,36 H 1.6699829 Z"
                 sodipodi:nodetypes="ccccccccccccccccc" /></g></g><g
             id="g6739"
             transform="matrix(0.12026784,0,0,0.12026784,1.8259397,1.2271433)"
             style="fill:#6945b4;fill-opacity:1"><path
               d="M 2.0100098,34 V 50 H 50.01001 V 34 Z M 48.01001,48 H 4.0100098 V 36 H 48.01001 Z"
               fill="#0096e6"
               id="path6737"
               style="fill:#6945b4;fill-opacity:1" /></g><g
             id="g6743"
             transform="matrix(0.12026784,0,0,0.12026784,1.8259397,1.2271433)"
             style="fill:#ecdbfd;fill-opacity:1"><path
               d="M 4.0100098,36 V 48 H 48.01001 V 36 Z M 11.01001,46 H 7.0100098 V 44 H 11.01001 Z m 34,-5 H 7.0100098 V 39 H 45.01001 Z"
               fill="#d0e8f9"
               id="path6741"
               style="fill:#ecdbfd;fill-opacity:1" /></g><g
             id="g6749"
             transform="matrix(0.12026784,0,0,0.12026784,1.8259397,1.2271433)"
             style="fill:#6945b4;fill-opacity:1"><g
               id="g6747"
               style="fill:#6945b4;fill-opacity:1"><rect
                 fill="#0096e6"
                 height="2"
                 width="4"
                 x="7.0100098"
                 y="44"
                 id="rect6745"
                 style="fill:#6945b4;fill-opacity:1" /></g></g><g
             id="g6755"
             transform="matrix(0.12026784,0,0,0.12026784,1.8259397,1.2271433)"
             style="fill:#6945b4;fill-opacity:1"><g
               id="g6753"
               style="fill:#6945b4;fill-opacity:1"><rect
                 fill="#0096e6"
                 height="2"
                 width="38"
                 x="7.0100098"
                 y="39"
                 id="rect6751"
                 style="fill:#6945b4;fill-opacity:1" /></g></g><text
             xml:space="preserve"
             style="font-size:1.11111px;text-align:center;text-anchor:middle;fill:#6945b4;fill-opacity:1;stroke:#000000;stroke-width:0.2;stroke-linecap:square;stroke-miterlimit:3"
             x="5"
             y="3.1666675"
             id="text6759"><tspan
               sodipodi:role="line"
               id="tspan6757"
               style="fill:#6945b4;fill-opacity:1;stroke:none;stroke-width:0.2"
               x="5"
               y="3.1666675">Data</tspan><tspan
               sodipodi:role="line"
               style="fill:#6945b4;fill-opacity:1;stroke:none;stroke-width:0.2"
               x="5"
               y="4.5555549"
               id="tspan7012">(v2)</tspan></text></g><path
           style="display:inline;fill:none;fill-rule:evenodd;stroke:#000000;stroke-width:0.2;stroke-linecap:butt;stroke-linejoin:miter;stroke-dasharray:none;stroke-opacity:1;marker-end:url(#marker6403)"
           d="m 41.887241,19.285963 -1e-6,8.093683"
           id="path6695"
           inkscape:connector-type="polyline"
           inkscape:connector-curvature="0"
           sodipodi:nodetypes="cc"
           inkscape:connection-start="#g6761"
           inkscape:connection-end="#g6681" /></g><g
         id="g6689"
         transform="translate(25.322685,15.80158)"><path
           class="cls-1"
           d="m 25.075026,14.371049 h -2.765898 a 0.59742373,0.59742373 0 0 1 -0.608671,-0.614922 v -2.009743 c 0.0162,-0.389951 0.249958,-0.62492 0.624919,-0.62492 h 0.657418 a 0.64866721,0.64866721 0 0 1 0.603672,0.30496 l 0.146232,0.194975 h 1.353577 c 0.374952,0.0162 0.589923,0.23247 0.613671,0.608673 0,0 0,0.0099 0,0.0162 v 1.499809 A 0.60742245,0.60742245 0 0 1 25.091272,14.371 Z m -2.7409,-0.499938 h 2.73215 c 0.109996,-0.0087 0.124994,-0.04125 0.133724,-0.136242 v -1.47981 c -0.0075,-0.116235 -0.0288,-0.124994 -0.124995,-0.133723 h -1.467292 a 0.24996808,0.24996808 0 0 1 -0.199985,-0.09998 l -0.224971,-0.299959 c -0.065,-0.09248 -0.08249,-0.09998 -0.194975,-0.09998 h -0.662406 c -0.08249,0 -0.124994,0 -0.124994,0.136242 v 1.988497 c 0,0.08873 0.0174,0.116235 0.133723,0.124994 z"
           id="path6683"
           style="fill:#6945b4;fill-opacity:1;stroke-width:0.124984" /><text
           xml:space="preserve"
           style="font-size:1.11111px;text-align:center;text-anchor:middle;fill:#6945b4;fill-opacity:1;stroke:none;stroke-width:0.2;stroke-linecap:square;stroke-miterlimit:3;stroke-dasharray:none;stroke-opacity:1"
           x="23.677977"
           y="15.398465"
           id="text6687"><tspan
             sodipodi:role="line"
             id="tspan6685"
             style="stroke-width:0.2"
             x="23.677977"
             y="15.398465">Project 3</tspan></text></g><g
         id="g6729"
         transform="translate(44.06998,14.643214)"><g
           id="g6703"
           transform="matrix(0.12026784,0,0,0.12026784,1.8259397,1.2271433)"
           style="fill:#6945b4;fill-opacity:1"><g
             id="g6701"
             style="fill:#6945b4;fill-opacity:1"><path
               id="path6699"
               style="fill:#6945b4;fill-opacity:1"
               d="M 2.0100098,34.849976 2.2600098,34 10.26001,7 40.069989,6.7999915 42.085989,9 H 11.76001 L 4.3499756,34 H 47.690002 L 43.219971,18 40.069989,6.7999915 h 2.016 L 45.299988,18 49.769959,34 50.01001,34.849976 50.330017,36 H 1.6699829 Z"
               sodipodi:nodetypes="ccccccccccccccccc" /></g></g><g
           id="g6707"
           transform="matrix(0.12026784,0,0,0.12026784,1.8259397,1.2271433)"
           style="fill:#6945b4;fill-opacity:1"><path
             d="M 2.0100098,34 V 50 H 50.01001 V 34 Z M 48.01001,48 H 4.0100098 V 36 H 48.01001 Z"
             fill="#0096e6"
             id="path6705"
             style="fill:#6945b4;fill-opacity:1" /></g><g
           id="g6711"
           transform="matrix(0.12026784,0,0,0.12026784,1.8259397,1.2271433)"
           style="fill:#ecdbfd;fill-opacity:1"><path
             d="M 4.0100098,36 V 48 H 48.01001 V 36 Z M 11.01001,46 H 7.0100098 V 44 H 11.01001 Z m 34,-5 H 7.0100098 V 39 H 45.01001 Z"
             fill="#d0e8f9"
             id="path6709"
             style="fill:#ecdbfd;fill-opacity:1" /></g><g
           id="g6717"
           transform="matrix(0.12026784,0,0,0.12026784,1.8259397,1.2271433)"
           style="fill:#6945b4;fill-opacity:1"><g
             id="g6715"
             style="fill:#6945b4;fill-opacity:1"><rect
               fill="#0096e6"
               height="2"
               width="4"
               x="7.0100098"
               y="44"
               id="rect6713"
               style="fill:#6945b4;fill-opacity:1" /></g></g><g
           id="g6723"
           transform="matrix(0.12026784,0,0,0.12026784,1.8259397,1.2271433)"
           style="fill:#6945b4;fill-opacity:1"><g
             id="g6721"
             style="fill:#6945b4;fill-opacity:1"><rect
               fill="#0096e6"
               height="2"
               width="38"
               x="7.0100098"
               y="39"
               id="rect6719"
               style="fill:#6945b4;fill-opacity:1" /></g></g><text
           xml:space="preserve"
           style="font-size:1.11111px;text-align:center;text-anchor:middle;fill:#6945b4;fill-opacity:1;stroke:#000000;stroke-width:0.2;stroke-linecap:square;stroke-miterlimit:3"
           x="5"
           y="3.0833342"
           id="text6727"><tspan
             sodipodi:role="line"
             id="tspan6725"
             style="fill:#6945b4;fill-opacity:1;stroke:none;stroke-width:0.2"
             x="5"
             y="3.0833342">Data</tspan><tspan
             sodipodi:role="line"
             style="fill:#6945b4;fill-opacity:1;stroke:none;stroke-width:0.2"
             x="5"
             y="4.4722219"
             id="tspan7014">(v3)</tspan></text></g><path
         style="fill:none;fill-rule:evenodd;stroke:#000000;stroke-width:0.2;stroke-linecap:butt;stroke-linejoin:miter;stroke-dasharray:none;stroke-opacity:1;marker-end:url(#marker6781)"
         d="m 49.022884,19.285963 0,8.093684"
         id="path6777"
         inkscape:connector-type="polyline"
         inkscape:connector-curvature="0"
         inkscape:connection-start="#g6729"
         inkscape:connection-end="#g6689" /></g></g></svg>
