<?xml version="1.0" encoding="UTF-8" standalone="no"?>
<!-- Created with Inkscape (http://www.inkscape.org/) -->

<svg
   width="6.0612721in"
   height="3.6246293in"
   viewBox="0 0 24.245089 14.498517"
   version="1.1"
   id="svg658"
   xml:space="preserve"
   inkscape:version="1.2.2 (b0a8486541, 2022-12-01)"
   sodipodi:docname="use-case-data.svg"
   xmlns:inkscape="http://www.inkscape.org/namespaces/inkscape"
   xmlns:sodipodi="http://sodipodi.sourceforge.net/DTD/sodipodi-0.dtd"
   xmlns="http://www.w3.org/2000/svg"
   xmlns:svg="http://www.w3.org/2000/svg"><sodipodi:namedview
     id="namedview660"
     pagecolor="#ffffff"
     bordercolor="#000000"
     borderopacity="0.25"
     inkscape:showpageshadow="2"
     inkscape:pageopacity="0.0"
     inkscape:pagecheckerboard="0"
     inkscape:deskcolor="#d1d1d1"
     inkscape:document-units="in"
     showgrid="true"
     inkscape:zoom="0.914906"
     inkscape:cx="284.7287"
     inkscape:cy="342.11165"
     inkscape:window-width="1920"
     inkscape:window-height="1031"
     inkscape:window-x="1920"
     inkscape:window-y="0"
     inkscape:window-maximized="0"
     inkscape:current-layer="layer1"><inkscape:grid
       type="xygrid"
       id="grid779"
       units="in"
       spacingx="0.2"
       originx="-2.0267849"
       originy="-0.96100788"
       spacingy="0.2"
       snapvisiblegridlinesonly="false" /></sodipodi:namedview><defs
     id="defs655"><marker
       style="overflow:visible"
       id="marker6403"
       refX="0"
       refY="0"
       orient="auto-start-reverse"
       inkscape:stockid="Arrow4"
       markerWidth="5"
       markerHeight="6"
       viewBox="0 0 5 6"
       inkscape:isstock="true"
       inkscape:collect="always"
       preserveAspectRatio="xMidYMid"><path
         style="fill:context-stroke;fill-rule:evenodd;stroke:none"
         d="m 1,0 -3,3 h -2 l 3,-3 -3,-3 h 2 z"
         id="path6401" /></marker><marker
       style="overflow:visible"
       id="Arrow4"
       refX="0"
       refY="0"
       orient="auto-start-reverse"
       inkscape:stockid="Arrow4"
       markerWidth="5"
       markerHeight="6"
       viewBox="0 0 5 6"
       inkscape:isstock="true"
       inkscape:collect="always"
       preserveAspectRatio="xMidYMid"><path
         style="fill:context-stroke;fill-rule:evenodd;stroke:none"
         d="m 1,0 -3,3 h -2 l 3,-3 -3,-3 h 2 z"
         id="path1741" /></marker><style
       id="style5947">.cls-1{fill:#ba63c6;}</style></defs><g
     inkscape:label="Layer 1"
     inkscape:groupmode="layer"
     id="layer1"
     transform="translate(-2.0267849,-0.9610079)"><g
       id="g8070"><g
         id="g5078"
         transform="translate(0,-0.66156975)"><g
           id="g2273"
           transform="matrix(0.12026784,0,0,0.12026784,1.8259397,1.2271433)"
           style="fill:#6945b4;fill-opacity:1"><g
             id="g2271"
             style="fill:#6945b4;fill-opacity:1"><path
               id="polygon2269"
               style="fill:#6945b4;fill-opacity:1"
               d="M 2.0100098,34.849976 2.2600098,34 10.26001,7 40.069989,6.7999915 42.085989,9 H 11.76001 L 4.3499756,34 H 47.690002 L 43.219971,18 40.069989,6.7999915 h 2.016 L 45.299988,18 49.769959,34 50.01001,34.849976 50.330017,36 H 1.6699829 Z"
               sodipodi:nodetypes="ccccccccccccccccc" /></g></g><g
           id="g2277"
           transform="matrix(0.12026784,0,0,0.12026784,1.8259397,1.2271433)"
           style="fill:#6945b4;fill-opacity:1"><path
             d="M 2.0100098,34 V 50 H 50.01001 V 34 Z M 48.01001,48 H 4.0100098 V 36 H 48.01001 Z"
             fill="#0096e6"
             id="path2275"
             style="fill:#6945b4;fill-opacity:1" /></g><g
           id="g2281"
           transform="matrix(0.12026784,0,0,0.12026784,1.8259397,1.2271433)"
           style="fill:#ecdbfd;fill-opacity:1"><path
             d="M 4.0100098,36 V 48 H 48.01001 V 36 Z M 11.01001,46 H 7.0100098 V 44 H 11.01001 Z m 34,-5 H 7.0100098 V 39 H 45.01001 Z"
             fill="#d0e8f9"
             id="path2279"
             style="fill:#ecdbfd;fill-opacity:1" /></g><g
           id="g2289"
           transform="matrix(0.12026784,0,0,0.12026784,1.8259397,1.2271433)"
           style="fill:#6945b4;fill-opacity:1"><g
             id="g2287"
             style="fill:#6945b4;fill-opacity:1"><rect
               fill="#0096e6"
               height="2"
               width="4"
               x="7.0100098"
               y="44"
               id="rect2285"
               style="fill:#6945b4;fill-opacity:1" /></g></g><g
           id="g2295"
           transform="matrix(0.12026784,0,0,0.12026784,1.8259397,1.2271433)"
           style="fill:#6945b4;fill-opacity:1"><g
             id="g2293"
             style="fill:#6945b4;fill-opacity:1"><rect
               fill="#0096e6"
               height="2"
               width="38"
               x="7.0100098"
               y="39"
               id="rect2291"
               style="fill:#6945b4;fill-opacity:1" /></g></g><text
           xml:space="preserve"
           style="font-size:1.11111px;text-align:center;text-anchor:middle;fill:#6945b4;fill-opacity:1;stroke:#000000;stroke-width:0.2;stroke-linecap:square;stroke-miterlimit:3"
           x="5"
           y="4"
           id="text2411"><tspan
             sodipodi:role="line"
             id="tspan2409"
             style="fill:#6945b4;fill-opacity:1;stroke:none;stroke-width:0.2"
             x="5"
             y="4">Data</tspan></text></g><path
         style="fill:none;fill-rule:evenodd;stroke:#000000;stroke-width:0.2;stroke-linecap:butt;stroke-linejoin:miter;stroke-dasharray:none;stroke-opacity:1;marker-end:url(#Arrow4)"
         d="m 7.6000006,3.9899268 4.8917734,-0.00464"
         id="path5085"
         inkscape:connector-type="polyline"
         inkscape:connector-curvature="0"
         inkscape:connection-end="#g5083" /><g
         id="g6532"><g
           id="g5083"
           transform="matrix(0.33239235,0,0,0.33239235,5.5031768,1.0169377)"><path
             style="fill:#ecdbfd;stroke-width:0.0416667"
             d="m 26.133341,17.994542 c -2.082245,-0.02683 -2.086259,-0.02724 -2.833334,-0.288719 -1.329008,-0.465165 -2.497444,-1.506391 -3.103589,-2.765694 -0.346199,-0.719249 -0.50024,-1.362278 -0.53003,-2.21256 -0.08378,-2.39133 1.330478,-4.4677976 3.633619,-5.3350151 0.672357,-0.2531675 1.215931,-0.352485 1.929179,-0.352485 h 0.328296 l 0.04952,-0.40625 c 0.185991,-1.52579 1.068139,-2.8097975 2.401338,-3.4952595 0.67373,-0.3463971 1.717491,-0.58641 2.333333,-0.53655 0.454567,0.036803 0.888906,0.1295337 1.286687,0.2747062 0.183387,0.066928 0.338186,0.1216867 0.343999,0.1216867 0.0058,0 0.128787,-0.1728067 0.273275,-0.384015 0.675879,-0.9879792 1.733976,-1.8467413 2.834449,-2.3004659 0.708971,-0.2923083 1.662382,-0.4821858 2.421149,-0.4821858 0.474199,0 1.57272,0.1439083 1.91985,0.2515042 1.007367,0.3122416 1.920779,0.8888183 2.712258,1.7120683 0.848283,0.8823358 1.379355,1.89868 1.651944,3.1614275 0.08052,0.3730037 0.09471,0.5646817 0.09625,1.30022 l 0.0018,0.86272 0.3125,0.069279 c 2.036038,0.4513754 3.715084,2.1495195 4.148705,4.1958934 0.280028,1.321533 0.05007,2.804007 -0.606349,3.908921 -0.218262,0.36739 -0.835823,1.088578 -1.188009,1.387359 -0.906296,0.768866 -1.948146,1.212664 -3.075869,1.310232 -0.202045,0.01748 -0.376589,0.01684 -0.387875,-0.0014 -0.02222,-0.03595 -2.112691,-0.04723 -2.148334,-0.01158 C 40.926213,17.99027 39.964066,18 38.8,18 c -1.164066,0 -2.126212,-0.0097 -2.138103,-0.02162 -0.01189,-0.01189 -0.493496,-0.02162 -1.070232,-0.02162 -0.576736,0 -1.05834,0.0097 -1.070231,0.02162 C 34.509544,17.99027 33.547397,18 32.383332,18 c -1.164066,0 -2.126213,-0.0097 -2.138103,-0.02162 -0.03434,-0.03434 -2.111708,-0.02506 -2.155647,0.0096 -0.02177,0.01719 -0.902084,0.02014 -1.95625,0.0066 z m -2.004759,-2.115881 c 0.0575,-0.06354 0.0684,-0.146946 0.05854,-0.447917 l -0.01212,-0.369842 -0.333333,-0.0026 c -0.470104,-0.0038 -0.652764,-0.114408 -0.855617,-0.518233 -0.0518,-0.103125 -0.160708,-0.248438 -0.242012,-0.322917 -0.109301,-0.100127 -0.128875,-0.135416 -0.07511,-0.135416 0.138621,0 0.309311,0.122988 0.458077,0.33006 0.08222,0.114448 0.211034,0.240768 0.286246,0.280712 0.152569,0.08103 0.551064,0.09633 0.676754,0.02599 0.111825,-0.06258 0.321332,-0.538056 0.258531,-0.586733 -0.02669,-0.02069 -0.159382,-0.05914 -0.294861,-0.08545 -0.751645,-0.145949 -1.157287,-0.673228 -1.162684,-1.511329 -0.0018,-0.284219 0.01414,-0.352829 0.140973,-0.60564 0.128809,-0.256751 0.143165,-0.320339 0.144323,-0.639277 0.0015,-0.413871 0.03607,-0.541667 0.146512,-0.541667 0.108563,0 0.400213,0.117999 0.6017,0.243444 0.159186,0.09911 0.178028,0.101417 0.44869,0.055 0.356422,-0.06112 0.84219,-0.06199 1.185916,-0.0021 0.262829,0.04577 0.269428,0.04455 0.565913,-0.104406 0.164991,-0.08289 0.360524,-0.162247 0.434518,-0.176342 0.119889,-0.02284 0.13962,-0.01261 0.181243,0.09399 0.02758,0.07063 0.03822,0.249943 0.02597,0.43789 -0.01937,0.297321 -0.01294,0.330049 0.09766,0.497105 0.164914,0.249105 0.222883,0.527224 0.192368,0.922936 -0.05915,0.767033 -0.510471,1.249185 -1.266278,1.35278 -0.10194,0.01397 -0.194376,0.04894 -0.205412,0.0777 -0.01104,0.02876 0.02306,0.133798 0.07576,0.233416 0.08766,0.165677 0.09599,0.235666 0.09774,0.820688 0.0018,0.587044 0.0087,0.644601 0.08416,0.700889 0.113509,0.08463 0.29858,0.04798 0.658159,-0.130339 0.895896,-0.444276 1.568321,-1.274002 1.824884,-2.251782 0.10466,-0.398864 0.124893,-1.158576 0.04106,-1.541666 C 28.084166,10.685772 27.1156,9.6693231 25.841674,9.3275494 25.397282,9.208326 24.599243,9.1986423 24.175007,9.3073248 c -0.625187,0.1601637 -1.349321,0.5847129 -1.73391,1.0165662 -1.284816,1.442715 -1.202584,3.577333 0.187569,4.868963 0.33294,0.309345 0.635785,0.507419 1.012915,0.662494 0.293318,0.120611 0.394561,0.125458 0.487001,0.02331 z m 23.475859,-0.494842 c 0.259725,-0.367676 0.565923,-1.153873 0.701854,-1.802083 0.09176,-0.437588 0.102533,-1.497995 0.01989,-1.958334 C 47.99293,9.7670685 46.69321,8.1727802 44.966674,7.502491 44.737507,7.4135218 44.400007,7.3071777 44.216674,7.2661702 44.033341,7.2251627 43.863094,7.1766168 43.838348,7.1582902 43.807975,7.1357952 43.799586,6.908846 43.812528,6.4597777 43.8347,5.6904573 43.783505,5.198746 43.613946,4.5524643 43.323596,3.4457852 42.711984,2.4159052 41.8728,1.6205868 41.402537,1.1749056 40.950281,0.8513673 40.398404,0.5658223 39.956649,0.3372552 39.010526,0.0031614 38.956891,0.0567964 c -0.01614,0.016138 0.03547,0.079914 0.114694,0.1417242 1.313142,1.0245571 2.416287,2.5809058 2.93554,4.1415475 0.312253,0.9384929 0.438716,1.7456021 0.438716,2.7999721 V 7.743296 l 0.197916,0.026318 c 0.341989,0.045475 1.060172,0.2331333 1.385417,0.3620038 2.221047,0.8800366 3.421262,2.7268892 3.528331,5.4292852 0.02201,0.55564 -0.03455,1.655414 -0.09589,1.864584 -0.03271,0.111513 0.0521,0.08677 0.14283,-0.04167 z M 25.56282,7.3213189 25.550007,7.1442356 25.133341,7.1320006 c -0.229167,-0.00673 -0.547917,0.010698 -0.708334,0.038727 l -0.291666,0.050962 0.4375,0.053702 c 0.240625,0.029536 0.540625,0.090427 0.666666,0.1353121 0.33137,0.1180067 0.340144,0.1155958 0.325313,-0.089385 z m 6.257421,-3.9467283 c 0.06908,-0.1368467 0.1256,-0.2593879 0.1256,-0.2723142 0,-0.045368 -0.399561,-0.1962962 -0.770834,-0.2911708 -0.41611,-0.1063321 -1.020833,-0.1767258 -1.020833,-0.1188312 0,0.020348 0.138231,0.079905 0.30718,0.1323499 0.405318,0.1258167 0.789902,0.3566734 1.000941,0.6008409 0.09408,0.1088429 0.184838,0.1979054 0.201696,0.1979166 0.01686,1.13e-5 0.08717,-0.1119449 0.15625,-0.2487912 z"
             id="path4494" /><path
             style="fill:#ceb6f1;stroke-width:0.0416667"
             d="m 23.641581,15.855347 c -0.37713,-0.155075 -0.679975,-0.353149 -1.012915,-0.662494 -1.390153,-1.29163 -1.472385,-3.426248 -0.187569,-4.868963 0.384589,-0.4318532 1.108723,-0.8564023 1.73391,-1.0165661 0.424236,-0.1086825 1.222275,-0.098999 1.666667,0.020225 1.070528,0.2872054 1.964894,1.0798951 2.348487,2.0815021 0.18053,0.471383 0.231871,0.764557 0.227252,1.297685 -0.0051,0.588184 -0.101967,0.990948 -0.365785,1.520833 -0.334219,0.671289 -0.872646,1.207192 -1.550716,1.543448 -0.359579,0.178315 -0.54465,0.214967 -0.658159,0.130339 -0.0755,-0.05629 -0.08241,-0.113845 -0.08416,-0.700889 -0.0017,-0.585022 -0.01008,-0.655011 -0.09774,-0.820688 -0.05271,-0.09962 -0.0868,-0.204655 -0.07576,-0.233416 0.01104,-0.02876 0.103472,-0.06372 0.205412,-0.0777 0.755807,-0.103595 1.207128,-0.585747 1.266278,-1.352781 0.03052,-0.395712 -0.02745,-0.673831 -0.192368,-0.922936 -0.110596,-0.167056 -0.117025,-0.199784 -0.09766,-0.497105 0.01225,-0.187947 0.0016,-0.367255 -0.02597,-0.437891 -0.04162,-0.106593 -0.06135,-0.116825 -0.181243,-0.09399 -0.07399,0.01409 -0.269527,0.09345 -0.434518,0.176342 -0.296485,0.148958 -0.303084,0.150175 -0.565913,0.104405 -0.343726,-0.05985 -0.829494,-0.05898 -1.185916,0.0021 -0.270662,0.04641 -0.289504,0.0441 -0.44869,-0.055 -0.201487,-0.125444 -0.493137,-0.243443 -0.6017,-0.243443 -0.110443,0 -0.14501,0.127796 -0.146512,0.541667 -0.0012,0.318938 -0.01551,0.382526 -0.144323,0.639277 -0.126832,0.252811 -0.142803,0.321421 -0.140973,0.60564 0.0054,0.838101 0.411039,1.36538 1.162684,1.511329 0.135479,0.02631 0.268167,0.06476 0.294861,0.08545 0.0628,0.04868 -0.146706,0.524152 -0.258531,0.586733 -0.12569,0.07034 -0.524185,0.05504 -0.676754,-0.02599 -0.07521,-0.03994 -0.204023,-0.166264 -0.286246,-0.280712 -0.148766,-0.207072 -0.319456,-0.33006 -0.458077,-0.33006 -0.05376,0 -0.03419,0.03529 0.07511,0.135416 0.0813,0.07448 0.190208,0.219792 0.242011,0.322917 0.202854,0.403825 0.385513,0.514448 0.855616,0.518184 l 0.333334,0.0027 0.01212,0.369842 c 0.01789,0.546056 -0.07478,0.618179 -0.545542,0.424603 z m 0.462062,-0.362599 0.01197,-0.35982 -0.303635,0.0017 c -0.46476,0.0026 -0.672806,-0.123472 -0.877854,-0.53206 -0.0575,-0.114584 -0.182773,-0.278403 -0.278377,-0.364042 -0.183591,-0.164456 -0.189224,-0.240124 -0.01788,-0.240124 0.166685,0 0.315388,0.09999 0.550209,0.369969 0.256349,0.294732 0.438717,0.37356 0.724667,0.313238 0.155416,-0.03279 0.189478,-0.0612 0.269696,-0.224949 0.0505,-0.103084 0.09292,-0.207878 0.09427,-0.232877 0.0014,-0.025 -0.105353,-0.06911 -0.237124,-0.09803 -0.528689,-0.11602 -0.885762,-0.384456 -1.076364,-0.809173 -0.09163,-0.204185 -0.118255,-0.335697 -0.133954,-0.661714 -0.02105,-0.437172 0.03014,-0.653987 0.221711,-0.939091 0.07961,-0.118476 0.08699,-0.163113 0.05515,-0.333333 -0.04215,-0.225317 0.01944,-0.600097 0.111125,-0.67619 0.08144,-0.06759 0.275768,-0.01984 0.62846,0.15443 0.29419,0.145365 0.297229,0.145881 0.591315,0.100251 0.378708,-0.05876 0.730709,-0.05818 1.093942,0.0018 l 0.288685,0.04767 0.302674,-0.150541 c 0.166471,-0.0828 0.371372,-0.162286 0.455337,-0.17664 0.213897,-0.03657 0.263414,0.06472 0.266119,0.544331 0.0019,0.331769 0.0153,0.397403 0.116447,0.56934 0.166104,0.282343 0.221032,0.632017 0.162434,1.034058 -0.104591,0.717597 -0.447103,1.099405 -1.14564,1.277079 -0.143196,0.03642 -0.27435,0.07459 -0.291453,0.08482 -0.0171,0.01023 0.0016,0.07847 0.04167,0.151651 0.05746,0.105065 0.07715,0.272353 0.0936,0.795316 0.02471,0.785683 0.03302,0.800272 0.384987,0.676121 1.041712,-0.367451 1.895925,-1.415002 2.098148,-2.573035 0.407766,-2.335096 -1.680304,-4.353937 -4.006652,-3.8738041 -0.679934,0.1403304 -1.292187,0.4837846 -1.775249,0.9958551 -0.349485,0.370474 -0.57707,0.753932 -0.746888,1.258435 -0.113557,0.337362 -0.136095,0.472768 -0.152572,0.916667 -0.01599,0.430843 -0.0043,0.583533 0.06743,0.883719 0.153152,0.640587 0.439088,1.164304 0.880389,1.61251 0.415836,0.422342 1.131987,0.8459 1.396238,0.825785 l 0.125,-0.0095 0.01197,-0.359821 z m 23.357968,-0.06726 c 0.06135,-0.20917 0.117908,-1.308943 0.09589,-1.864584 C 47.450436,10.858507 46.250221,9.0116539 44.029174,8.1316173 43.703929,8.0027468 42.985746,7.8150885 42.643757,7.7696135 L 42.445841,7.743296 V 7.1400402 c 0,-1.05437 -0.126463,-1.8614792 -0.438716,-2.7999721 -0.519253,-1.5606417 -1.622398,-3.1169904 -2.93554,-4.1415475 -0.07922,-0.06181 -0.130832,-0.1255858 -0.114694,-0.1417242 0.01614,-0.016138 0.249144,0.041118 0.517791,0.1272354 1.715918,0.5500555 3.127623,1.8458001 3.858836,3.5418638 0.357862,0.8300683 0.509015,1.692755 0.47901,2.7338821 -0.01294,0.4490683 -0.0046,0.6760175 0.02582,0.6985125 0.02475,0.018327 0.194993,0.066872 0.378326,0.10788 2.065094,0.4619141 3.726439,2.2234033 4.109513,4.3572318 0.08264,0.460339 0.07187,1.520746 -0.01989,1.958334 -0.135931,0.64821 -0.442129,1.434407 -0.701854,1.802083 -0.09073,0.12844 -0.175536,0.15318 -0.14283,0.04167 z M 25.237507,7.4107031 C 25.111466,7.3658177 24.811466,7.3049273 24.570841,7.275391 l -0.4375,-0.053702 0.291666,-0.050962 c 0.160417,-0.028029 0.479167,-0.045456 0.708334,-0.038726 l 0.416666,0.012235 0.01281,0.1770833 c 0.01483,0.20498 0.0061,0.2073909 -0.325313,0.089384 z M 31.462295,3.4254652 C 31.251256,3.1812977 30.866672,2.950441 30.461354,2.8246243 c -0.168949,-0.052445 -0.30718,-0.112002 -0.30718,-0.1323499 0,-0.057895 0.604723,0.012499 1.020833,0.1188312 0.371273,0.094875 0.770834,0.2458029 0.770834,0.2911708 0,0.052545 -0.25344,0.5211242 -0.28185,0.5211054 -0.01686,-1.12e-5 -0.107621,-0.089074 -0.201696,-0.1979166 z"
             id="path4490" /><path
             style="fill:#6945b4;stroke-width:0.0416667"
             d="m 23.585775,15.752121 c -0.971925,-0.453786 -1.645286,-1.280807 -1.895729,-2.328333 -0.07177,-0.300186 -0.08342,-0.452876 -0.06743,-0.883719 0.01648,-0.443898 0.03902,-0.579304 0.152572,-0.916667 0.169818,-0.504502 0.397403,-0.887961 0.746888,-1.258435 0.770149,-0.8163977 1.875944,-1.1994393 2.971791,-1.0294127 2.441695,0.3788421 3.657552,3.1656667 2.279832,5.2255287 -0.367605,0.549615 -0.997317,1.053614 -1.567876,1.254871 -0.351965,0.124151 -0.360272,0.109562 -0.384987,-0.67612 -0.01645,-0.522964 -0.03614,-0.690251 -0.0936,-0.795317 -0.04002,-0.07318 -0.05877,-0.141421 -0.04167,-0.151651 0.0171,-0.01023 0.148257,-0.0484 0.291453,-0.08482 0.698537,-0.177673 1.041049,-0.559481 1.14564,-1.277078 0.0586,-0.402042 0.0037,-0.751716 -0.162434,-1.034058 -0.101151,-0.171937 -0.114575,-0.237572 -0.116447,-0.569341 -0.0027,-0.479613 -0.05222,-0.580897 -0.266119,-0.54433 -0.08397,0.01435 -0.288866,0.09384 -0.455337,0.176639 l -0.302668,0.150542 -0.288685,-0.04768 c -0.363233,-0.05999 -0.715235,-0.06057 -1.093943,-0.0018 -0.294085,0.04563 -0.297125,0.04511 -0.591314,-0.100252 -0.352692,-0.174273 -0.547015,-0.222023 -0.62846,-0.15443 -0.09169,0.07609 -0.153279,0.450873 -0.111126,0.67619 0.03184,0.170221 0.02446,0.214858 -0.05515,0.333333 -0.191574,0.285105 -0.242762,0.50192 -0.22171,0.939091 0.0157,0.326017 0.04232,0.457529 0.133954,0.661715 0.190602,0.424717 0.547675,0.693152 1.076364,0.809172 0.131771,0.02892 0.238477,0.07303 0.237124,0.09803 -0.0013,0.025 -0.04378,0.129794 -0.09427,0.232877 -0.08022,0.163753 -0.114279,0.192163 -0.269696,0.224949 -0.28595,0.06032 -0.468318,-0.01851 -0.724667,-0.313237 -0.234821,-0.269977 -0.383524,-0.369968 -0.550209,-0.369968 -0.171347,0 -0.165714,0.07567 0.01788,0.240125 0.0956,0.08564 0.220874,0.249459 0.278377,0.364042 0.205048,0.408588 0.413094,0.534685 0.877854,0.532068 l 0.303636,-0.0017 -0.01197,0.35982 -0.01197,0.359821 -0.125,0.0095 c -0.06875,0.0052 -0.240155,-0.04425 -0.3809,-0.109963 z"
             id="path4482" /></g><text
           xml:space="preserve"
           style="font-size:1.11111px;text-align:center;text-anchor:middle;fill:#6945b4;fill-opacity:1;stroke:#000000;stroke-width:0.2;stroke-linecap:square;stroke-miterlimit:3;stroke-dasharray:none;stroke-opacity:1"
           x="17.419447"
           y="4.2728462"
           id="text5207"><tspan
             sodipodi:role="line"
             id="tspan5205"
             style="stroke:none;stroke-width:0.2"
             x="17.419447"
             y="4.2728462">git (lfs)</tspan></text></g><g
         id="g6447"
         transform="translate(0.38056724)"><g
           id="g6383"
           transform="translate(0,0.16106033)"><path
             class="cls-1"
             d="M 10.475026,14.004383 H 7.709128 A 0.59742373,0.59742373 0 0 1 7.100457,13.389461 v -2.009743 c 0.0162,-0.389951 0.249958,-0.62492 0.624919,-0.62492 h 0.657418 a 0.64866721,0.64866721 0 0 1 0.603672,0.30496 l 0.146232,0.194975 h 1.353577 c 0.374952,0.0162 0.589923,0.23247 0.613671,0.608673 0,0 0,0.0099 0,0.0162 v 1.499809 a 0.60742245,0.60742245 0 0 1 -0.608674,0.624919 z m -2.7409,-0.499938 h 2.73215 c 0.109996,-0.0087 0.124994,-0.04125 0.133724,-0.136242 v -1.47981 C 10.5925,11.772158 10.5712,11.763399 10.475005,11.75467 H 9.007713 A 0.24996808,0.24996808 0 0 1 8.807728,11.65469 L 8.582757,11.354731 c -0.065,-0.09248 -0.08249,-0.09998 -0.194975,-0.09998 H 7.725376 c -0.08249,0 -0.124994,0 -0.124994,0.136242 v 1.988497 c 0,0.08873 0.0174,0.116235 0.133723,0.124994 z"
             id="path5953"
             style="fill:#6945b4;fill-opacity:1;stroke-width:0.124984" /><text
             xml:space="preserve"
             style="font-size:1.11111px;text-align:center;text-anchor:middle;fill:#6945b4;fill-opacity:1;stroke:none;stroke-width:0.2;stroke-linecap:square;stroke-miterlimit:3;stroke-dasharray:none;stroke-opacity:1"
             x="9.1668644"
             y="15.031798"
             id="text6370"><tspan
               sodipodi:role="line"
               id="tspan6368"
               style="stroke-width:0.2"
               x="9.1668644"
               y="15.031798">Project 1</tspan></text></g><g
           id="g6388"
           transform="translate(-0.2444986)"><path
             class="cls-1"
             d="m 17.97508,14.165443 h -2.765898 a 0.59742373,0.59742373 0 0 1 -0.608671,-0.614922 v -2.009743 c 0.0162,-0.389951 0.249958,-0.62492 0.624919,-0.62492 h 0.657418 a 0.64866721,0.64866721 0 0 1 0.603672,0.30496 l 0.146232,0.194975 h 1.353577 c 0.374952,0.0162 0.589923,0.23247 0.613671,0.608673 0,0 0,0.0099 0,0.0162 v 1.499809 a 0.60742245,0.60742245 0 0 1 -0.608674,0.624919 z m -2.7409,-0.499938 h 2.73215 c 0.109996,-0.0087 0.124994,-0.04125 0.133724,-0.136242 v -1.47981 c -0.0075,-0.116235 -0.0288,-0.124994 -0.124995,-0.133723 h -1.467292 a 0.24996808,0.24996808 0 0 1 -0.199985,-0.09998 l -0.224971,-0.299959 c -0.065,-0.09248 -0.08249,-0.09998 -0.194975,-0.09998 H 15.22543 c -0.08249,0 -0.124994,0 -0.124994,0.136242 v 1.988497 c 0,0.08873 0.0174,0.116235 0.133723,0.124994 z"
             id="path6314"
             style="fill:#6945b4;fill-opacity:1;stroke-width:0.124984" /><text
             xml:space="preserve"
             style="font-size:1.11111px;text-align:center;text-anchor:middle;fill:#6945b4;fill-opacity:1;stroke:none;stroke-width:0.2;stroke-linecap:square;stroke-miterlimit:3;stroke-dasharray:none;stroke-opacity:1"
             x="16.575253"
             y="15.192859"
             id="text6374"><tspan
               sodipodi:role="line"
               id="tspan6372"
               style="stroke-width:0.2"
               x="16.575253"
               y="15.192859">Project 2</tspan></text></g><g
           id="g6393"
           transform="translate(0,-0.20560646)"><path
             class="cls-1"
             d="m 25.075026,14.371049 h -2.765898 a 0.59742373,0.59742373 0 0 1 -0.608671,-0.614922 v -2.009743 c 0.0162,-0.389951 0.249958,-0.62492 0.624919,-0.62492 h 0.657418 a 0.64866721,0.64866721 0 0 1 0.603672,0.30496 l 0.146232,0.194975 h 1.353577 c 0.374952,0.0162 0.589923,0.23247 0.613671,0.608673 0,0 0,0.0099 0,0.0162 v 1.499809 A 0.60742245,0.60742245 0 0 1 25.091272,14.371 Z m -2.7409,-0.499938 h 2.73215 c 0.109996,-0.0087 0.124994,-0.04125 0.133724,-0.136242 v -1.47981 c -0.0075,-0.116235 -0.0288,-0.124994 -0.124995,-0.133723 h -1.467292 a 0.24996808,0.24996808 0 0 1 -0.199985,-0.09998 l -0.224971,-0.299959 c -0.065,-0.09248 -0.08249,-0.09998 -0.194975,-0.09998 h -0.662406 c -0.08249,0 -0.124994,0 -0.124994,0.136242 v 1.988497 c 0,0.08873 0.0174,0.116235 0.133723,0.124994 z"
             id="path6316"
             style="fill:#6945b4;fill-opacity:1;stroke-width:0.124984" /><text
             xml:space="preserve"
             style="font-size:1.11111px;text-align:center;text-anchor:middle;fill:#6945b4;fill-opacity:1;stroke:none;stroke-width:0.2;stroke-linecap:square;stroke-miterlimit:3;stroke-dasharray:none;stroke-opacity:1"
             x="23.677977"
             y="15.398465"
             id="text6378"><tspan
               sodipodi:role="line"
               id="tspan6376"
               style="stroke-width:0.2"
               x="23.677977"
               y="15.398465">Project 3</tspan></text></g></g><path
         style="fill:none;fill-rule:evenodd;stroke:#000000;stroke-width:0.2;stroke-linecap:butt;stroke-linejoin:miter;stroke-dasharray:none;stroke-opacity:1;marker-end:url(#marker6403)"
         d="M 14.41635,7.0004223 10.892463,11.417228"
         id="path6395"
         inkscape:connector-type="polyline"
         inkscape:connector-curvature="0"
         inkscape:connection-start="#g5083"
         inkscape:connection-end="#g6383" /><path
         style="fill:none;fill-rule:evenodd;stroke:#000000;stroke-width:0.2;stroke-linecap:butt;stroke-linejoin:miter;stroke-dasharray:none;stroke-opacity:1;marker-end:url(#marker6403)"
         d="m 16.796083,6.997567 -0.04247,4.397953"
         id="path6397"
         inkscape:connector-type="polyline"
         inkscape:connector-curvature="0"
         inkscape:connection-start="#g5083"
         inkscape:connection-end="#g6388" /><path
         style="fill:none;fill-rule:evenodd;stroke:#000000;stroke-width:0.2;stroke-linecap:butt;stroke-linejoin:miter;stroke-dasharray:none;stroke-opacity:1;marker-end:url(#marker6403)"
         d="m 19.19463,6.9873719 3.165223,4.0158651"
         id="path6399"
         inkscape:connector-type="polyline"
         inkscape:connector-curvature="0"
         inkscape:connection-start="#g5083"
         inkscape:connection-end="#g6393" /><text
         xml:space="preserve"
         style="font-size:1.11111px;text-align:center;text-anchor:middle;fill:#6945b4;fill-opacity:1;stroke:none;stroke-width:0.2;stroke-linecap:square;stroke-miterlimit:3;stroke-dasharray:none;stroke-opacity:1"
         x="10.666672"
         y="10.295556"
         id="text8014"><tspan
           sodipodi:role="line"
           id="tspan8012"
           style="stroke-width:0.2"
           x="10.666672"
           y="10.295556">@v1</tspan></text><text
         xml:space="preserve"
         style="font-size:1.11111px;text-align:center;text-anchor:middle;fill:#6945b4;fill-opacity:1;stroke:none;stroke-width:0.2;stroke-linecap:square;stroke-miterlimit:3;stroke-dasharray:none;stroke-opacity:1"
         x="15.508334"
         y="10.301111"
         id="text8018"><tspan
           sodipodi:role="line"
           id="tspan8016"
           style="stroke-width:0.2"
           x="15.508334"
           y="10.301111">@v2</tspan></text><text
         xml:space="preserve"
         style="font-size:1.11111px;text-align:center;text-anchor:middle;fill:#6945b4;fill-opacity:1;stroke:none;stroke-width:0.2;stroke-linecap:square;stroke-miterlimit:3;stroke-dasharray:none;stroke-opacity:1"
         x="20.03334"
         y="10.301111"
         id="text8022"><tspan
           sodipodi:role="line"
           id="tspan8020"
           style="stroke-width:0.2"
           x="20.03334"
           y="10.301111">@v3</tspan></text></g><g
       id="g2305"
       style="display:none"
       transform="matrix(0.12026784,0,0,0.12026784,1.8259397,1.2271433)"><g
         id="g2299"
         style="display:none"><path
           d="m 26.01001,2 v 16 h 24 V 2 Z m 22,14 h -20 V 4 h 20 z"
           fill="#0096e6"
           id="path2297" /></g><g
         id="g2303"
         style="display:none"><path
           d="m 28.01001,4 v 12 h 20 V 4 Z m 6.389953,9.029968 C 34.070007,13.339966 33.640015,13.5 33.099976,13.5 c -0.779969,0 -1.479981,-0.309998 -2.089966,-0.940002 l 0.529968,-0.730042 c 0.51001,0.51001 1.040039,0.76001 1.580017,0.76001 0.279968,0 0.48999,-0.07001 0.649964,-0.200012 0.160034,-0.139954 0.240051,-0.319947 0.240051,-0.539978 0,-0.229981 -0.07001,-0.399964 -0.220032,-0.52002 -0.149963,-0.129944 -0.409973,-0.23999 -0.779968,-0.339966 -0.369995,-0.109985 -0.650025,-0.200012 -0.840027,-0.289978 -0.190002,-0.08002 -0.369995,-0.190002 -0.51001,-0.330017 -0.299988,-0.260009 -0.450012,-0.6600339 -0.450012,-1.1900021 0,-0.5400391 0.170044,-0.9500122 0.51001,-1.2399902 0.340027,-0.2900391 0.75,-0.4400024 1.25,-0.4400024 0.320007,0 0.640014,0.059998 0.960022,0.1799927 C 34.23999,7.7999878 34.519959,7.9799805 34.75,8.2000122 L 34.299988,8.9299927 C 34.149963,8.7799683 33.950012,8.6499634 33.690002,8.5499878 c -0.25,-0.099976 -0.5,-0.1500244 -0.75,-0.1500244 -0.25,0 -0.450012,0.059998 -0.609985,0.1799927 -0.160034,0.1100464 -0.240051,0.2900391 -0.240051,0.5200195 0,0.2399902 0.08002,0.4199829 0.240051,0.539978 0.159973,0.1300049 0.5,0.2600098 1.009949,0.4100344 0.520019,0.140014 0.910034,0.339966 1.170044,0.599975 0.259948,0.26001 0.389953,0.640015 0.389953,1.150025 0,0.5 -0.169982,0.909973 -0.5,1.22998 z m 4.53003,0 C 38.599976,13.339966 38.169983,13.5 37.630005,13.5 c -0.780029,0 -1.480042,-0.309998 -2.090027,-0.940002 l 0.530029,-0.730042 c 0.51001,0.51001 1.039978,0.76001 1.579956,0.76001 0.28003,0 0.490052,-0.07001 0.650025,-0.200012 0.159973,-0.139954 0.23999,-0.319947 0.23999,-0.539978 0,-0.229981 -0.07001,-0.399964 -0.219971,-0.52002 C 38.169983,11.200012 37.909973,11.089966 37.539978,10.98999 37.169983,10.880005 36.890015,10.789978 36.700012,10.700012 36.5,10.619995 36.330017,10.51001 36.190002,10.369995 35.890015,10.109985 35.73999,9.7099609 35.73999,9.1799927 35.73999,8.6399536 35.909973,8.2299805 36.25,7.9400025 36.589966,7.6499634 37,7.5 37.5,7.5 c 0.320007,0 0.640015,0.059998 0.959961,0.1799927 0.309998,0.1199951 0.590027,0.2999878 0.820007,0.5200195 L 38.830017,8.9299927 C 38.679993,8.7799683 38.47998,8.6499634 38.219971,8.5499878 c -0.25,-0.099976 -0.5,-0.1500244 -0.75,-0.1500244 -0.25,0 -0.450013,0.059998 -0.609986,0.1799927 -0.159973,0.1100464 -0.23999,0.2900391 -0.23999,0.5200195 0,0.2399902 0.08002,0.4199829 0.23999,0.539978 0.159973,0.1300049 0.5,0.2600098 1.01001,0.4100344 0.520019,0.140014 0.909973,0.339966 1.169983,0.599975 0.26001,0.26001 0.390014,0.640015 0.390014,1.150025 1e-6,0.5 -0.169982,0.909973 -0.499999,1.22998 z m 5.369995,-0.380005 c -0.469971,0.52002 -1.179993,0.78003 -2.150025,0.78003 H 40.47998 V 7.6399536 h 1.729981 c 0.900024,0 1.590027,0.25 2.070007,0.7600098 0.48999,0.5100098 0.730042,1.210022 0.730042,2.1100466 0,0.899963 -0.240051,1.609985 -0.710022,2.139953 z"
           fill="#d0e8f9"
           id="path2301" /></g></g><g
       id="g2331"
       style="display:none"
       transform="matrix(0.12026784,0,0,0.12026784,1.8259397,1.2271433)"><g
         id="g2329"><g
           id="g2311"><g
             id="g2309"><path
               d="M 34.51001,10.649963 C 34.25,10.389954 33.859985,10.190003 33.339966,10.049988 32.830017,9.8999634 32.48999,9.7699585 32.330017,9.6399536 32.169983,9.5199585 32.089966,9.3399658 32.089966,9.0999756 c 0,-0.2299805 0.08002,-0.4099731 0.240051,-0.5200195 0.159973,-0.1199951 0.359986,-0.1799927 0.609986,-0.1799927 0.25,0 0.5,0.050049 0.75,0.1500244 0.260009,0.099976 0.45996,0.2299805 0.609985,0.3800049 L 34.75,8.2000122 C 34.519959,7.9799805 34.23999,7.7999878 33.929993,7.6799927 33.609985,7.5599976 33.289978,7.5 32.969971,7.5 c -0.5,0 -0.909973,0.1499634 -1.25,0.4400024 -0.339966,0.289978 -0.51001,0.6999512 -0.51001,1.2399902 0,0.5299683 0.150024,0.9299924 0.450012,1.1900024 0.140015,0.140015 0.320007,0.25 0.51001,0.330017 0.190002,0.08997 0.470032,0.179993 0.840027,0.289978 0.369995,0.09998 0.630005,0.210022 0.779968,0.339966 0.150024,0.120056 0.220032,0.290039 0.220032,0.520019 0,0.220032 -0.08002,0.400025 -0.240051,0.539978 -0.159974,0.130005 -0.369996,0.200013 -0.649964,0.200013 -0.539978,0 -1.070007,-0.25 -1.580017,-0.76001 L 31.01001,12.559997 C 31.619995,13.190002 32.320007,13.5 33.099976,13.5 c 0.540039,0 0.970031,-0.160034 1.299987,-0.470032 0.330017,-0.320007 0.5,-0.72998 0.5,-1.22998 0,-0.51001 -0.130004,-0.890015 -0.389953,-1.150025 z"
               fill="#0096e6"
               id="path2307" /></g></g><g
           id="g2317"><g
             id="g2315"><path
               d="m 39.039978,10.649963 c -0.26001,-0.260009 -0.649963,-0.45996 -1.169983,-0.599975 -0.51001,-0.1500246 -0.850037,-0.2800295 -1.01001,-0.4100344 -0.159973,-0.1199951 -0.23999,-0.2999878 -0.23999,-0.539978 0,-0.2299805 0.08002,-0.4099731 0.23999,-0.5200195 0.159973,-0.1199951 0.359986,-0.1799927 0.609986,-0.1799927 0.25,0 0.5,0.050049 0.75,0.1500244 0.260009,0.099976 0.460022,0.2299805 0.610046,0.3800049 L 39.279968,8.2000122 C 39.049988,7.9799805 38.769959,7.7999878 38.459961,7.6799927 38.140015,7.5599976 37.820007,7.5 37.5,7.5 c -0.5,0 -0.910034,0.1499634 -1.25,0.4400024 -0.340027,0.289978 -0.51001,0.6999512 -0.51001,1.2399902 0,0.5299683 0.150025,0.9299924 0.450012,1.1900024 0.140015,0.140015 0.309998,0.25 0.51001,0.330017 0.190003,0.08997 0.469971,0.179993 0.839966,0.289978 0.369995,0.09998 0.630005,0.210022 0.780029,0.339966 0.149964,0.120056 0.219971,0.290039 0.219971,0.520019 0,0.220032 -0.08002,0.400025 -0.23999,0.539978 -0.159973,0.130005 -0.369995,0.200013 -0.650025,0.200013 -0.539978,0 -1.069946,-0.25 -1.579956,-0.76001 l -0.530029,0.730041 C 36.149963,13.190002 36.849976,13.5 37.630005,13.5 c 0.539978,0 0.969971,-0.160034 1.299988,-0.470032 0.330017,-0.320007 0.5,-0.72998 0.5,-1.22998 0,-0.51001 -0.130005,-0.890015 -0.390015,-1.150025 z"
               fill="#0096e6"
               id="path2313" /></g></g><g
           id="g2327"><g
             id="g2321"><path
               d="M 44.279968,8.3999634 C 43.799988,7.8899536 43.109985,7.6399536 42.209961,7.6399536 H 40.47998 v 5.7900394 h 1.669983 c 0.970032,0 1.680054,-0.26001 2.150025,-0.78003 0.46997,-0.529968 0.710022,-1.23999 0.710022,-2.139953 0,-0.9000246 -0.240051,-1.6000369 -0.730042,-2.1100466 z M 43.669983,12.01001 c -0.320007,0.339966 -0.789978,0.5 -1.400024,0.5 H 41.330017 V 8.5499878 h 0.849976 c 1.309997,0 1.96997,0.6599731 1.96997,1.9799802 0,0.660034 -0.159973,1.150025 -0.47998,1.480042 z"
               fill="#0096e6"
               id="path2319" /></g><g
             id="g2325"><path
               d="m 44.149963,10.529968 c 0,0.660035 -0.159973,1.150025 -0.47998,1.480042 -0.320007,0.339966 -0.789978,0.5 -1.400025,0.5 H 41.330017 V 8.5499878 h 0.849976 c 1.309997,0 1.96997,0.6599731 1.96997,1.9799802 z"
               fill="#d0e8f9"
               id="path2323" /></g></g></g></g><title
       id="title5951" /></g></svg>
