<?xml version="1.0" encoding="UTF-8" standalone="no"?>
<!-- Created with Inkscape (http://www.inkscape.org/) -->

<svg
   width="14.86377in"
   height="7.6215038in"
   viewBox="0 0 59.455082 30.486015"
   version="1.1"
   id="svg658"
   xml:space="preserve"
   inkscape:version="1.2.2 (b0a8486541, 2022-12-01)"
   sodipodi:docname="actions-workflow.svg"
   xmlns:inkscape="http://www.inkscape.org/namespaces/inkscape"
   xmlns:sodipodi="http://sodipodi.sourceforge.net/DTD/sodipodi-0.dtd"
   xmlns="http://www.w3.org/2000/svg"
   xmlns:svg="http://www.w3.org/2000/svg"><sodipodi:namedview
     id="namedview660"
     pagecolor="#ffffff"
     bordercolor="#000000"
     borderopacity="0.25"
     inkscape:showpageshadow="2"
     inkscape:pageopacity="0.0"
     inkscape:pagecheckerboard="0"
     inkscape:deskcolor="#d1d1d1"
     inkscape:document-units="in"
     showgrid="true"
     inkscape:zoom="0.914906"
     inkscape:cx="230.07828"
     inkscape:cy="343.20466"
     inkscape:window-width="3776"
     inkscape:window-height="2111"
     inkscape:window-x="64"
     inkscape:window-y="0"
     inkscape:window-maximized="1"
     inkscape:current-layer="layer1"><inkscape:grid
       type="xygrid"
       id="grid779"
       units="in"
       spacingx="0.2"
       originx="-0.79600006"
       originy="-0.88406829"
       spacingy="0.2" /></sodipodi:namedview><defs
     id="defs655"><marker
       style="overflow:visible"
       id="marker4075"
       refX="0"
       refY="0"
       orient="auto-start-reverse"
       inkscape:stockid="TriangleStart"
       markerWidth="3.3239999"
       markerHeight="3.8427744"
       viewBox="0 0 5.3244081 6.1553851"
       inkscape:isstock="true"
       inkscape:collect="always"
       preserveAspectRatio="xMidYMid"><path
         transform="scale(0.5)"
         style="fill:context-stroke;fill-rule:evenodd;stroke:context-stroke;stroke-width:1pt"
         d="M 5.77,0 -2.88,5 V -5 Z"
         id="path4073" /></marker><marker
       style="overflow:visible"
       id="TriangleStart"
       refX="0"
       refY="0"
       orient="auto-start-reverse"
       inkscape:stockid="TriangleStart"
       markerWidth="2.729075"
       markerHeight="3.155"
       viewBox="0 0 5.3244081 6.1553851"
       inkscape:isstock="true"
       inkscape:collect="always"
       preserveAspectRatio="xMidYMid"><path
         transform="scale(0.5)"
         style="fill:context-stroke;fill-rule:evenodd;stroke:context-stroke;stroke-width:1pt"
         d="M 5.77,0 -2.88,5 V -5 Z"
         id="path135" /></marker></defs><g
     inkscape:label="Layer 1"
     inkscape:groupmode="layer"
     id="layer1"
     transform="translate(-0.796,-0.8840683)"><path
       style="fill:none;fill-opacity:1;stroke:#008000;stroke-width:0.408;stroke-linecap:round;stroke-miterlimit:3;stroke-dasharray:none;marker-end:url(#TriangleStart)"
       d="M 7.200002,2.8000003 C 4.2,2.8 0.999999,3.999999 1,8 c -1e-6,3.999999 3.6,5.2 6.2,5.2"
       id="path2026"
       sodipodi:nodetypes="ccc" /><text
       xml:space="preserve"
       style="font-size:2.22222px;fill:#00ffff;stroke:#000000;stroke-width:0.008;stroke-linecap:square;stroke-miterlimit:3"
       x="17.157955"
       y="19.168785"
       id="text288"><tspan
         sodipodi:role="line"
         id="tspan286"
         style="fill:#000000;fill-opacity:1;stroke-width:0.008"
         x="17.157955"
         y="19.168785">cv-data submodule</tspan></text><path
       style="fill:#000000;stroke-width:0.00937123"
       d="m 13.889168,20.452423 v -0.27505 l -0.119483,-0.0055 c -0.363143,-0.01675 -0.638977,-0.22761 -0.744286,-0.568963 l -0.02168,-0.07028 -0.0027,-1.499395 c -0.0024,-1.360049 -0.0013,-1.505927 0.01264,-1.56968 0.05226,-0.239432 0.239254,-0.434586 0.481916,-0.502943 0.05798,-0.01633 0.139784,-0.01716 1.700877,-0.01716 1.559198,0 1.641629,8.3e-4 1.673771,0.01683 0.04645,0.02313 0.0922,0.06957 0.112656,0.114363 0.0164,0.03592 0.01712,0.118783 0.01712,1.982013 0,1.863211 -7.2e-4,1.946105 -0.01712,1.982221 -0.02111,0.04648 -0.0634,0.08974 -0.11066,0.113209 -0.0342,0.01698 -0.07203,0.01789 -0.84407,0.02032 l -0.808267,0.0025 v 0.276267 0.276263 l -0.332678,-0.221761 -0.332679,-0.221762 -0.332678,0.221762 -0.332678,0.221761 z m 0,-0.947923 v -0.220223 h 0.665356 0.665357 v 0.220223 0.220224 h 0.670042 0.670043 v -0.332678 -0.332679 h -1.4084 c -1.528012,0 -1.46899,-0.0019 -1.550559,0.05043 -0.161363,0.103559 -0.206189,0.310981 -0.101158,0.468084 0.06967,0.104215 0.154387,0.145145 0.302635,0.146217 l 0.08668,6.3e-4 z m 2.666112,-2.005441 v -1.115175 h -1.443168 -1.443168 l -0.0024,1.117548 -0.0024,1.117548 1.445549,-0.0024 1.445549,-0.0024 z m -2.666112,0.670042 v -0.224909 h 0.220224 0.220223 v 0.224909 0.22491 h -0.220223 -0.220224 z m 0,-0.670042 v -0.220223 h 0.220224 0.220223 v 0.220223 0.220224 h -0.220223 -0.220224 z m 0,-0.665357 v -0.220223 h 0.220224 0.220223 v 0.220223 0.220224 h -0.220223 -0.220224 z"
       id="path1792" /><text
       xml:space="preserve"
       style="font-size:2.22222px;fill:#00ffff;stroke:#000000;stroke-width:0.008;stroke-linecap:square;stroke-miterlimit:3"
       x="12.402674"
       y="14.384666"
       id="text1801"><tspan
         sodipodi:role="line"
         id="tspan1799"
         style="fill:#000000;fill-opacity:1;stroke-width:0.008"
         x="12.402674"
         y="14.384666">srvanderplas.github.io</tspan></text><path
       style="fill:#000000;stroke-width:0.00937123"
       d="m 9.1338858,15.668304 v -0.27505 l -0.1194831,-0.0055 C 8.6512599,15.37099 8.3754261,15.160131 8.2701173,14.818778 l -0.021683,-0.07028 -0.0027,-1.499395 c -0.00245,-1.36005 -0.00128,-1.505927 0.012642,-1.56968 0.052259,-0.239432 0.2392535,-0.434586 0.481916,-0.502944 0.057984,-0.01633 0.1397834,-0.01716 1.7008767,-0.01716 1.559198,0 1.641629,8.3e-4 1.673771,0.01683 0.04645,0.02313 0.0922,0.06957 0.112656,0.114364 0.01641,0.03592 0.01712,0.118783 0.01712,1.982013 0,1.863211 -7.2e-4,1.946105 -0.01712,1.982221 -0.02111,0.04648 -0.0634,0.08974 -0.11066,0.113209 -0.0342,0.01698 -0.07203,0.01789 -0.84407,0.02032 l -0.808267,0.0025 v 0.276267 0.276263 L 10.131921,15.72159 9.7992424,15.499829 9.4665642,15.72159 9.1338858,15.943352 Z m 0,-0.947923 v -0.220223 h 0.6653566 0.6653566 v 0.220223 0.220224 h 0.670042 0.670043 v -0.332679 -0.332678 h -1.4084 c -1.5280118,0 -1.4689903,-0.0019 -1.5505592,0.05043 -0.1613626,0.103559 -0.2061886,0.31098 -0.1011579,0.468084 0.069672,0.104215 0.1543874,0.145145 0.302635,0.146217 l 0.086684,6.3e-4 z M 11.799998,12.71494 V 11.599765 H 10.35683 8.913662 l -0.00238,1.117547 -0.00238,1.117548 1.445549,-0.0024 L 11.8,13.83012 Z m -2.6661122,0.670042 v -0.224909 h 0.2202237 0.2202236 v 0.224909 0.22491 H 9.3541095 9.1338858 Z m 0,-0.670042 v -0.220224 h 0.2202237 0.2202236 v 0.220224 0.220224 H 9.3541095 9.1338858 Z m 0,-0.665357 v -0.220224 h 0.2202237 0.2202236 v 0.220224 0.220224 H 9.3541095 9.1338858 Z"
       id="path1803" /><text
       xml:space="preserve"
       style="font-size:2.22222px;fill:#00ffff;stroke:#000000;stroke-width:0.008;stroke-linecap:square;stroke-miterlimit:3"
       x="12.402676"
       y="25.027313"
       id="text1809"><tspan
         sodipodi:role="line"
         id="tspan1807"
         style="fill:#000000;fill-opacity:1;stroke-width:0.008"
         x="12.402676"
         y="25.027313">CV</tspan></text><path
       style="fill:#000000;stroke-width:0.00937123"
       d="m 9.1338878,26.310951 v -0.27505 l -0.1194831,-0.0055 C 8.6512619,26.013637 8.3754281,25.802778 8.2701193,25.461425 l -0.021683,-0.07028 -0.0027,-1.499395 c -0.00245,-1.360049 -0.00128,-1.505927 0.012642,-1.56968 0.052259,-0.239432 0.2392535,-0.434586 0.481916,-0.502943 0.057984,-0.01633 0.1397834,-0.01716 1.7008767,-0.01716 1.559199,0 1.641629,8.3e-4 1.673771,0.01683 0.04645,0.02313 0.0922,0.06957 0.112656,0.114363 0.0164,0.03592 0.01712,0.118783 0.01712,1.982013 0,1.863211 -7.2e-4,1.946105 -0.01712,1.982221 -0.02111,0.04648 -0.0634,0.08974 -0.11066,0.113209 -0.0342,0.01698 -0.07203,0.01789 -0.84407,0.02032 l -0.808267,0.0025 v 0.276267 0.276263 L 10.131923,26.364238 9.7992444,26.142476 9.4665662,26.364238 9.1338878,26.585999 Z m 0,-0.947923 v -0.220223 h 0.6653566 0.6653566 v 0.220223 0.220224 h 0.670042 0.670043 v -0.332678 -0.332679 h -1.4084 c -1.5280118,0 -1.4689903,-0.0019 -1.5505592,0.05043 -0.1613626,0.103559 -0.2061886,0.310981 -0.1011579,0.468084 0.069672,0.104215 0.1543874,0.145145 0.302635,0.146217 l 0.086684,6.3e-4 z M 11.8,23.357587 V 22.242412 H 10.356832 8.913664 l -0.00238,1.117548 -0.00238,1.117548 1.445549,-0.0024 1.445549,-0.0024 z M 9.1338878,24.027629 V 23.80272 h 0.2202237 0.2202236 v 0.224909 0.22491 H 9.3541115 9.1338878 Z m 0,-0.670042 v -0.220223 h 0.2202237 0.2202236 v 0.220223 0.220224 H 9.3541115 9.1338878 Z m 0,-0.665357 v -0.220223 h 0.2202237 0.2202236 v 0.220223 0.220224 H 9.3541115 9.1338878 Z"
       id="path1811" /><text
       xml:space="preserve"
       style="font-size:2.22222px;fill:#00ffff;stroke:#000000;stroke-width:0.008;stroke-linecap:square;stroke-miterlimit:3"
       x="17.167332"
       y="29.811432"
       id="text1867"><tspan
         sodipodi:role="line"
         id="tspan1865"
         style="fill:#000000;fill-opacity:1;stroke-width:0.008"
         x="17.167332"
         y="29.811432">cv-data submodule</tspan></text><path
       style="fill:#000000;stroke-width:0.00937123"
       d="m 13.898544,31.095069 v -0.27505 l -0.119483,-0.0055 c -0.363143,-0.01675 -0.638977,-0.22761 -0.744286,-0.568963 l -0.02168,-0.07028 -0.0027,-1.499395 c -0.0024,-1.360049 -0.0013,-1.505927 0.01264,-1.56968 0.05226,-0.239432 0.239254,-0.434586 0.481916,-0.502943 0.05798,-0.01633 0.139784,-0.01716 1.700877,-0.01716 1.559198,0 1.641629,8.3e-4 1.673771,0.01683 0.04645,0.02313 0.0922,0.06957 0.112656,0.114363 0.01641,0.03592 0.01712,0.118783 0.01712,1.982013 0,1.863211 -7.2e-4,1.946105 -0.01712,1.982221 -0.02111,0.04648 -0.0634,0.08974 -0.11066,0.113209 -0.0342,0.01698 -0.07203,0.01789 -0.84407,0.02032 l -0.808267,0.0025 v 0.276267 0.276263 l -0.332678,-0.221761 -0.332679,-0.221762 -0.332678,0.221762 -0.332678,0.221761 z m 0,-0.947923 v -0.220223 h 0.665356 0.665357 v 0.220223 0.220224 h 0.670042 0.670043 v -0.332678 -0.332679 h -1.4084 c -1.528012,0 -1.46899,-0.0019 -1.550559,0.05043 -0.161363,0.103559 -0.206189,0.310981 -0.101158,0.468084 0.06967,0.104215 0.154387,0.145145 0.302635,0.146217 l 0.08668,6.3e-4 z m 2.666112,-2.005441 V 27.02653 H 15.121488 13.67832 l -0.0024,1.117548 -0.0024,1.117547 1.445549,-0.0024 1.445549,-0.0024 z m -2.666112,0.670042 v -0.224909 h 0.220224 0.220223 v 0.224909 0.22491 h -0.220223 -0.220224 z m 0,-0.670042 v -0.220223 h 0.220224 0.220223 v 0.220223 0.220224 h -0.220223 -0.220224 z m 0,-0.665357 v -0.220223 h 0.220224 0.220223 v 0.220223 0.220224 h -0.220223 -0.220224 z"
       id="path1869" /><g
       id="g1907"
       transform="translate(4.195316,-2.6643594)"><text
         xml:space="preserve"
         style="font-size:2.22222px;fill:#00ffff;stroke:#000000;stroke-width:0.008;stroke-linecap:square;stroke-miterlimit:3"
         x="8.2026739"
         y="6.773778"
         id="text1903"><tspan
           sodipodi:role="line"
           id="tspan1901"
           style="fill:#000000;fill-opacity:1;stroke-width:0.008"
           x="8.2026739"
           y="6.773778">cv-data</tspan></text><path
         style="fill:#000000;stroke-width:0.00937123"
         d="M 4.9338858,8.0574152 V 7.7823649 L 4.8144027,7.7768523 C 4.4512599,7.7601011 4.1754261,7.5492421 4.0701173,7.2078894 L 4.0484343,7.1376054 4.0457343,5.63821 c -0.00245,-1.3600494 -0.00128,-1.5059271 0.012642,-1.5696795 0.052259,-0.2394325 0.2392535,-0.4345864 0.481916,-0.5029438 0.057984,-0.016334 0.1397834,-0.017159 1.7008766,-0.017159 1.5591986,0 1.6416288,8.299e-4 1.673771,0.016834 0.046446,0.023127 0.092198,0.069573 0.1126562,0.1143631 0.016405,0.035918 0.017122,0.1187832 0.017122,1.9820133 0,1.8632114 -7.197e-4,1.9461047 -0.017122,1.9822213 -0.021112,0.046477 -0.0634,0.089737 -0.1106599,0.1132085 -0.034197,0.016983 -0.072034,0.017894 -0.84407,0.020325 l -0.808267,0.00254 V 8.0561998 8.3324633 L 5.9319208,8.1107016 5.5992424,7.8889399 5.2665642,8.1107016 4.9338858,8.3324631 Z m 0,-0.9479227 V 6.8892689 H 5.5992424 6.2645992 V 7.1094922 7.329716 H 6.9346413 7.6046837 V 6.9970376 6.6643594 H 6.1962839 c -1.5280117,0 -1.4689902,-0.00191 -1.5505591,0.050429 -0.1613626,0.1035585 -0.2061886,0.3109802 -0.1011579,0.4680841 0.069672,0.1042149 0.1543874,0.1451448 0.302635,0.1462167 l 0.086684,6.297e-4 z M 7.5999982,5.1040511 V 3.9888758 H 6.1568301 4.713662 L 4.711282,5.1064237 4.708902,6.2239715 6.154451,6.2216015 7.6,6.2192315 Z M 4.9338858,5.7740935 V 5.5491842 H 5.1541095 5.3743331 V 5.7740935 5.9990028 H 5.1541095 4.9338858 Z m 0,-0.6700424 V 4.8838276 H 5.1541095 5.3743331 V 5.1040511 5.3242749 H 5.1541095 4.9338858 Z m 0,-0.6653567 V 4.2184706 H 5.1541095 5.3743331 V 4.4386944 4.6589182 H 5.1541095 4.9338858 Z"
         id="path1905" /></g><path
       style="fill:none;fill-opacity:1;stroke:#008000;stroke-width:0.408;stroke-linecap:round;stroke-miterlimit:3;stroke-dasharray:none;marker-end:url(#TriangleStart)"
       d="M 7.200002,2.8000003 C 4.2,2.8 0.999999,3.999999 1,8 v 10.8 c 0,3.508931 2.2,5 6.2,5"
       id="path2413"
       sodipodi:nodetypes="ccsc" /><path
       style="fill:none;fill-opacity:1;stroke:#008000;stroke-width:0.408;stroke-linecap:round;stroke-miterlimit:3;stroke-dasharray:none;marker-end:url(#marker4075)"
       d="m 37.000003,13.600001 h 5"
       id="path4071" /><text
       xml:space="preserve"
       style="font-size:2.22222px;fill:none;fill-opacity:1;stroke:#000000;stroke-width:0.408;stroke-linecap:round;stroke-miterlimit:3;stroke-dasharray:none"
       x="43.811111"
       y="14.384666"
       id="text4167"><tspan
         sodipodi:role="line"
         id="tspan4165"
         style="fill:#000000;fill-opacity:1;stroke:none;stroke-width:0.408;stroke-opacity:1"
         x="43.811111"
         y="14.384666">build site</tspan></text><path
       style="fill:none;fill-opacity:1;stroke:#008000;stroke-width:0.408;stroke-linecap:round;stroke-miterlimit:3;stroke-dasharray:none;marker-end:url(#marker4075)"
       d="M 16,24 H 42"
       id="path4215"
       sodipodi:nodetypes="cc" /><text
       xml:space="preserve"
       style="font-size:2.22222px;fill:none;fill-opacity:1;stroke:#000000;stroke-width:0.408;stroke-linecap:round;stroke-miterlimit:3;stroke-dasharray:none"
       x="43.811108"
       y="24.784666"
       id="text4219"><tspan
         sodipodi:role="line"
         id="tspan4217"
         style="fill:#000000;fill-opacity:1;stroke:none;stroke-width:0.408;stroke-opacity:1"
         x="43.811108"
         y="24.784666">build document</tspan></text></g></svg>
