<?xml version="1.0" encoding="UTF-8" standalone="no"?>
<!-- Created with Inkscape (http://www.inkscape.org/) -->

<svg
   width="12.752025in"
   height="9.084959in"
   viewBox="0 0 51.008099 36.339836"
   version="1.1"
   id="svg658"
   xml:space="preserve"
   inkscape:version="1.2.2 (b0a8486541, 2022-12-01)"
   sodipodi:docname="presentation-structure-changes.svg"
   xmlns:inkscape="http://www.inkscape.org/namespaces/inkscape"
   xmlns:sodipodi="http://sodipodi.sourceforge.net/DTD/sodipodi-0.dtd"
   xmlns="http://www.w3.org/2000/svg"
   xmlns:svg="http://www.w3.org/2000/svg"><sodipodi:namedview
     id="namedview660"
     pagecolor="#ffffff"
     bordercolor="#000000"
     borderopacity="0.25"
     inkscape:showpageshadow="2"
     inkscape:pageopacity="0.0"
     inkscape:pagecheckerboard="0"
     inkscape:deskcolor="#d1d1d1"
     inkscape:document-units="in"
     showgrid="true"
     inkscape:zoom="0.64693624"
     inkscape:cx="399.5757"
     inkscape:cy="391.07409"
     inkscape:window-width="1920"
     inkscape:window-height="1031"
     inkscape:window-x="1920"
     inkscape:window-y="0"
     inkscape:window-maximized="0"
     inkscape:current-layer="g6447"><inkscape:grid
       type="xygrid"
       id="grid779"
       units="in"
       spacingx="0.2"
       originx="-3.129201e-08"
       originy="2.7144419"
       spacingy="0.2" /></sodipodi:namedview><defs
     id="defs655" /><g
     inkscape:label="Layer 1"
     inkscape:groupmode="layer"
     id="layer1"
     transform="translate(-3.1292009e-8,2.7144419)"><g
       id="g6447"
       transform="translate(-4.7218314,-7.665505)"><g
         id="g17472"><g
           id="g6388"
           transform="translate(-5.9506479,24.889315)"><g
             id="g17116"><path
               class="cls-1"
               d="m 14.047314,14.165443 h -2.765898 a 0.59742373,0.59742373 0 0 1 -0.608671,-0.614922 v -2.009743 c 0.0162,-0.389951 0.249958,-0.62492 0.624919,-0.62492 h 0.657418 a 0.64866721,0.64866721 0 0 1 0.603672,0.30496 l 0.146232,0.194975 h 1.353577 c 0.374952,0.0162 0.589923,0.23247 0.613671,0.608673 0,0 0,0.0099 0,0.0162 v 1.499809 a 0.60742245,0.60742245 0 0 1 -0.608674,0.624919 z m -2.7409,-0.499938 h 2.73215 c 0.109996,-0.0087 0.124994,-0.04125 0.133724,-0.136242 v -1.47981 c -0.0075,-0.116235 -0.0288,-0.124994 -0.124995,-0.133723 h -1.467292 a 0.24996808,0.24996808 0 0 1 -0.199985,-0.09998 l -0.224971,-0.299959 c -0.065,-0.09248 -0.08249,-0.09998 -0.194975,-0.09998 h -0.662406 c -0.08249,0 -0.124994,0 -0.124994,0.136242 v 1.988497 c 0,0.08873 0.0174,0.116235 0.133723,0.124994 z"
               id="path6314"
               style="fill:#6945b4;fill-opacity:1;stroke-width:0.124984" /><text
               xml:space="preserve"
               style="font-size:1.11111px;text-align:center;text-anchor:middle;fill:#6945b4;fill-opacity:1;stroke:none;stroke-width:0.2;stroke-linecap:square;stroke-miterlimit:3;stroke-dasharray:none;stroke-opacity:1"
               x="15.991916"
               y="15.192859"
               id="text6374"><tspan
                 sodipodi:role="line"
                 id="tspan6372"
                 style="stroke-width:0.2"
                 x="15.991916"
                 y="15.192859">Presentation-Archive</tspan></text><text
               xml:space="preserve"
               style="font-size:1.11111px;text-align:start;text-anchor:start;fill:#6945b4;fill-opacity:1;stroke:none;stroke-width:0.2;stroke-linecap:square;stroke-miterlimit:3"
               x="12.626671"
               y="16.390474"
               id="text17109"><tspan
                 sodipodi:role="line"
                 id="tspan17107"
                 style="stroke-width:0.2"
                 x="12.626671"
                 y="16.390474">Stuff before 2020</tspan></text></g></g><g
           id="g17124"
           transform="translate(6.5367667e-4,-0.08333333)"><path
             class="cls-1"
             d="M 8.0966596,11.040378 H 5.330762 A 0.59742373,0.59742373 0 0 1 4.722091,10.425456 V 8.4157125 c 0.0162,-0.389951 0.249958,-0.62492 0.624919,-0.62492 h 0.657418 a 0.64866721,0.64866721 0 0 1 0.603672,0.30496 l 0.146232,0.194975 h 1.3535766 c 0.374952,0.0162 0.589923,0.23247 0.613671,0.608673 0,0 0,0.0099 0,0.0162 v 1.4998085 a 0.60742245,0.60742245 0 0 1 -0.608674,0.624919 z M 5.35576,10.54044 h 2.7321496 c 0.109996,-0.0087 0.124994,-0.04125 0.133724,-0.136242 V 8.9243875 c -0.0075,-0.116235 -0.0288,-0.124994 -0.124995,-0.133723 H 6.629347 A 0.24996808,0.24996808 0 0 1 6.429362,8.6906845 L 6.204391,8.3907255 c -0.065,-0.09248 -0.08249,-0.09998 -0.194975,-0.09998 H 5.34701 c -0.08249,0 -0.124994,0 -0.124994,0.136242 v 1.9884965 c 0,0.08873 0.0174,0.116235 0.133723,0.124994 z"
             id="path5953"
             style="fill:#6945b4;fill-opacity:1;stroke-width:0.124984" /><text
             xml:space="preserve"
             style="font-size:1.11111px;text-align:center;text-anchor:middle;fill:#6945b4;fill-opacity:1;stroke:none;stroke-width:0.2;stroke-linecap:square;stroke-miterlimit:3;stroke-dasharray:none;stroke-opacity:1"
             x="8.2062712"
             y="12.067793"
             id="text6370"><tspan
               sodipodi:role="line"
               id="tspan6368"
               style="stroke-width:0.2"
               x="8.2062712"
               y="12.067793">Presentations</tspan></text></g><text
           xml:space="preserve"
           style="font-size:1.11111px;text-align:center;text-anchor:middle;fill:#6945b4;fill-opacity:1;stroke:#34db72;stroke-width:0.2;stroke-linecap:square;stroke-miterlimit:3"
           x="6.7224851"
           y="13.582172"
           id="text15909"><tspan
             sodipodi:role="line"
             id="tspan15907"
             style="text-align:start;text-anchor:start;fill:#6945b4;fill-opacity:1;stroke:none;stroke-width:0.2"
             x="6.7224851"
             y="13.582172">2020-CSAFE-cmc</tspan><tspan
             sodipodi:role="line"
             style="text-align:start;text-anchor:start;fill:#6945b4;fill-opacity:1;stroke:none;stroke-width:0.2"
             x="6.7224851"
             y="14.97106"
             id="tspan15911">2020-CSAFE-OpenSourceForensics</tspan><tspan
             sodipodi:role="line"
             style="text-align:start;text-anchor:start;fill:#6945b4;fill-opacity:1;stroke:none;stroke-width:0.2"
             x="6.7224851"
             y="16.359947"
             id="tspan15919">2020-DSSV</tspan><tspan
             sodipodi:role="line"
             style="text-align:start;text-anchor:start;fill:#6945b4;fill-opacity:1;stroke:none;stroke-width:0.2"
             x="6.7224851"
             y="17.748835"
             id="tspan17079">...</tspan><tspan
             sodipodi:role="line"
             style="text-align:start;text-anchor:start;fill:#6945b4;fill-opacity:1;stroke:none;stroke-width:0.2"
             x="6.7224851"
             y="19.137722"
             id="tspan17081">2021-ANSC-Graphics</tspan><tspan
             sodipodi:role="line"
             style="text-align:start;text-anchor:start;fill:#6945b4;fill-opacity:1;stroke:none;stroke-width:0.2"
             x="6.7224851"
             y="20.526609"
             id="tspan17083">2021-BSE-GSA-Graphics</tspan><tspan
             sodipodi:role="line"
             style="text-align:start;text-anchor:start;fill:#6945b4;fill-opacity:1;stroke:none;stroke-width:0.2"
             x="6.7224851"
             y="21.915497"
             id="tspan17085">2021-CSAFE-IMPL-OCR</tspan><tspan
             sodipodi:role="line"
             style="text-align:start;text-anchor:start;fill:#6945b4;fill-opacity:1;stroke:none;stroke-width:0.2"
             x="6.7224851"
             y="23.304384"
             id="tspan17087">...</tspan><tspan
             sodipodi:role="line"
             style="text-align:start;text-anchor:start;fill:#6945b4;fill-opacity:1;stroke:none;stroke-width:0.2"
             x="6.7224851"
             y="24.693272"
             id="tspan17089">2022-CBIO</tspan><tspan
             sodipodi:role="line"
             style="text-align:start;text-anchor:start;fill:#6945b4;fill-opacity:1;stroke:none;stroke-width:0.2"
             x="6.7224851"
             y="26.082159"
             id="tspan17091">2022-SDSU-DetectingCircles</tspan><tspan
             sodipodi:role="line"
             style="text-align:start;text-anchor:start;fill:#6945b4;fill-opacity:1;stroke:none;stroke-width:0.2"
             x="6.7224851"
             y="27.471046"
             id="tspan17093">2022-StatDept-Seminar</tspan><tspan
             sodipodi:role="line"
             style="text-align:start;text-anchor:start;fill:#6945b4;fill-opacity:1;stroke:none;stroke-width:0.2"
             x="6.7224851"
             y="28.859934"
             id="tspan17095">...</tspan><tspan
             sodipodi:role="line"
             style="text-align:start;text-anchor:start;fill:#6945b4;fill-opacity:1;stroke:none;stroke-width:0.2"
             x="6.7224851"
             y="30.248821"
             id="tspan17097">2023-ASC</tspan><tspan
             sodipodi:role="line"
             style="text-align:start;text-anchor:start;fill:#6945b4;fill-opacity:1;stroke:none;stroke-width:0.2"
             x="6.7224851"
             y="31.637709"
             id="tspan17099">2023-C3B</tspan><tspan
             sodipodi:role="line"
             style="text-align:start;text-anchor:start;fill:#6945b4;fill-opacity:1;stroke:none;stroke-width:0.2"
             x="6.7224851"
             y="33.026596"
             id="tspan17101">2023-CAREER-chalk-talk</tspan><tspan
             sodipodi:role="line"
             style="text-align:start;text-anchor:start;fill:#6945b4;fill-opacity:1;stroke:none;stroke-width:0.2"
             x="6.7224851"
             y="34.415485"
             id="tspan17103">...</tspan><tspan
             sodipodi:role="line"
             style="text-align:start;text-anchor:start;fill:#6945b4;fill-opacity:1;stroke:none;stroke-width:0.2"
             x="6.7224851"
             y="35.804371"
             id="tspan17105" /></text></g><g
         id="g17409"><g
           id="g17441"
           transform="translate(10.011998,-0.04079)"><path
             class="cls-1"
             d="m 31.092782,15.706295 h -2.765897 a 0.59742373,0.59742373 0 0 1 -0.608671,-0.614922 v -2.009742 c 0.0162,-0.389951 0.249958,-0.62492 0.624919,-0.62492 h 0.657418 a 0.64866721,0.64866721 0 0 1 0.603672,0.30496 l 0.146231,0.194975 h 1.353577 c 0.374952,0.0162 0.589923,0.23247 0.613671,0.608673 0,0 0,0.0099 0,0.0162 v 1.499808 a 0.60742245,0.60742245 0 0 1 -0.608674,0.624919 z m -2.740899,-0.499938 h 2.732149 c 0.109996,-0.0087 0.124994,-0.04125 0.133724,-0.136242 v -1.479809 c -0.0075,-0.116235 -0.0288,-0.124994 -0.124995,-0.133723 H 29.62547 a 0.24996808,0.24996808 0 0 1 -0.199985,-0.09998 l -0.224971,-0.299959 c -0.065,-0.09248 -0.08249,-0.09998 -0.194975,-0.09998 h -0.662406 c -0.08249,0 -0.124994,0 -0.124994,0.136242 v 1.988496 c 0,0.08873 0.0174,0.116235 0.133723,0.124994 z"
             id="path6316"
             style="fill:#6945b4;fill-opacity:1;stroke-width:0.124984" /><text
             xml:space="preserve"
             style="font-size:1.11111px;text-align:start;text-anchor:start;fill:#6945b4;fill-opacity:1;stroke:none;stroke-width:0.2;stroke-linecap:square;stroke-miterlimit:3;stroke-dasharray:none;stroke-opacity:1"
             x="32.596283"
             y="14.484393"
             id="text6378"><tspan
               sodipodi:role="line"
               id="tspan6376"
               style="text-align:start;text-anchor:start;stroke-width:0.2"
               x="32.596283"
               y="14.484393">2020-Presentations Repo</tspan></text><path
             class="cls-1"
             d="m 31.092782,20.32222 h -2.765897 a 0.59742373,0.59742373 0 0 1 -0.608671,-0.614922 v -2.009742 c 0.0162,-0.389951 0.249958,-0.62492 0.624919,-0.62492 h 0.657418 a 0.64866721,0.64866721 0 0 1 0.603672,0.30496 l 0.146231,0.194975 h 1.353577 c 0.374952,0.0162 0.589923,0.23247 0.613671,0.608673 0,0 0,0.0099 0,0.0162 v 1.499808 a 0.60742245,0.60742245 0 0 1 -0.608674,0.624919 z m -2.740899,-0.499938 h 2.732149 c 0.109996,-0.0087 0.124995,-0.04125 0.133725,-0.136242 v -1.479809 c -0.0075,-0.116235 -0.0288,-0.124994 -0.124995,-0.133723 h -1.467291 a 0.24996808,0.24996808 0 0 1 -0.199985,-0.09998 l -0.224971,-0.299959 c -0.065,-0.09248 -0.08249,-0.09998 -0.194975,-0.09998 h -0.662406 c -0.08249,0 -0.124995,0 -0.124995,0.136242 v 1.988496 c 0,0.08873 0.0174,0.116235 0.133723,0.124994 z"
             id="path17156"
             style="fill:#6945b4;fill-opacity:1;stroke-width:0.124984" /><text
             xml:space="preserve"
             style="font-size:1.11111px;text-align:start;text-anchor:start;fill:#6945b4;fill-opacity:1;stroke:none;stroke-width:0.2;stroke-linecap:square;stroke-miterlimit:3;stroke-dasharray:none;stroke-opacity:1"
             x="32.714355"
             y="19.100319"
             id="text17160"><tspan
               sodipodi:role="line"
               id="tspan17158"
               style="text-align:start;text-anchor:start;stroke-width:0.2"
               x="32.714355"
               y="19.100319">2021-Presentations Repo</tspan></text><path
             class="cls-1"
             d="m 31.092782,24.938147 h -2.765897 a 0.59742373,0.59742373 0 0 1 -0.608671,-0.614922 v -2.009742 c 0.0162,-0.389951 0.249958,-0.62492 0.624919,-0.62492 h 0.657418 a 0.64866721,0.64866721 0 0 1 0.603672,0.30496 l 0.146231,0.194975 h 1.353577 c 0.374952,0.0162 0.589923,0.23247 0.613671,0.608673 0,0 0,0.0099 0,0.0162 v 1.499808 a 0.60742245,0.60742245 0 0 1 -0.608674,0.624919 z m -2.740899,-0.499938 h 2.732149 c 0.109996,-0.0087 0.124994,-0.04125 0.133724,-0.136242 v -1.479809 c -0.0075,-0.116235 -0.0288,-0.124994 -0.124995,-0.133723 H 29.62547 a 0.24996808,0.24996808 0 0 1 -0.199985,-0.09998 l -0.224971,-0.299959 c -0.065,-0.09248 -0.08249,-0.09998 -0.194975,-0.09998 h -0.662406 c -0.08249,0 -0.124994,0 -0.124994,0.136242 v 1.988496 c 0,0.08873 0.0174,0.116235 0.133723,0.124994 z"
             id="path17162"
             style="fill:#6945b4;fill-opacity:1;stroke-width:0.124984" /><text
             xml:space="preserve"
             style="font-size:1.11111px;text-align:start;text-anchor:start;fill:#6945b4;fill-opacity:1;stroke:none;stroke-width:0.2;stroke-linecap:square;stroke-miterlimit:3;stroke-dasharray:none;stroke-opacity:1"
             x="32.677731"
             y="23.716246"
             id="text17166"><tspan
               sodipodi:role="line"
               id="tspan17164"
               style="text-align:start;text-anchor:start;stroke-width:0.2"
               x="32.677731"
               y="23.716246">2022-Presentations Repo</tspan></text><path
             class="cls-1"
             d="M 31.092782,29.554072 H 28.326885 A 0.59742373,0.59742373 0 0 1 27.718214,28.93915 v -2.009742 c 0.0162,-0.389951 0.249958,-0.62492 0.624919,-0.62492 h 0.657418 a 0.64866721,0.64866721 0 0 1 0.603672,0.30496 l 0.146231,0.194975 h 1.353577 c 0.374952,0.0162 0.589923,0.23247 0.613671,0.608673 0,0 0,0.0099 0,0.0162 v 1.499808 a 0.60742245,0.60742245 0 0 1 -0.608674,0.624919 z m -2.740899,-0.499938 h 2.732149 c 0.109996,-0.0087 0.124994,-0.04125 0.133724,-0.136242 v -1.479809 c -0.0075,-0.116235 -0.0288,-0.124994 -0.124995,-0.133723 H 29.62547 a 0.24996808,0.24996808 0 0 1 -0.199985,-0.09998 l -0.224971,-0.299959 c -0.065,-0.09248 -0.08249,-0.09998 -0.194975,-0.09998 h -0.662406 c -0.08249,0 -0.124994,0 -0.124994,0.136242 v 1.988496 c 0,0.08873 0.0174,0.116235 0.133723,0.124994 z"
             id="path17175"
             style="fill:#6945b4;fill-opacity:1;stroke-width:0.124984" /><text
             xml:space="preserve"
             style="font-size:1.11111px;text-align:start;text-anchor:start;fill:#6945b4;fill-opacity:1;stroke:none;stroke-width:0.2;stroke-linecap:square;stroke-miterlimit:3;stroke-dasharray:none;stroke-opacity:1"
             x="32.731281"
             y="28.33217"
             id="text17179"><tspan
               sodipodi:role="line"
               id="tspan17177"
               style="text-align:start;text-anchor:start;stroke-width:0.2"
               x="32.731281"
               y="28.33217">2023-Presentations Repo</tspan></text><g
             id="g17245"
             transform="translate(19.973343,-0.1231806)"><path
               class="cls-1"
               d="M 8.0966596,11.040378 H 5.330762 A 0.59742373,0.59742373 0 0 1 4.722091,10.425456 V 8.4157125 c 0.0162,-0.389951 0.249958,-0.62492 0.624919,-0.62492 h 0.657418 a 0.64866721,0.64866721 0 0 1 0.603672,0.30496 l 0.146232,0.194975 h 1.3535766 c 0.374952,0.0162 0.589923,0.23247 0.613671,0.608673 0,0 0,0.0099 0,0.0162 v 1.4998085 a 0.60742245,0.60742245 0 0 1 -0.608674,0.624919 z M 5.35576,10.54044 h 2.7321496 c 0.109996,-0.0087 0.124994,-0.04125 0.133724,-0.136242 V 8.9243875 c -0.0075,-0.116235 -0.0288,-0.124994 -0.124995,-0.133723 H 6.629347 A 0.24996808,0.24996808 0 0 1 6.429362,8.6906845 L 6.204391,8.3907255 c -0.065,-0.09248 -0.08249,-0.09998 -0.194975,-0.09998 H 5.34701 c -0.08249,0 -0.124994,0 -0.124994,0.136242 v 1.9884965 c 0,0.08873 0.0174,0.116235 0.133723,0.124994 z"
               id="path17239"
               style="fill:#6945b4;fill-opacity:1;stroke-width:0.124984" /><text
               xml:space="preserve"
               style="font-size:1.11111px;text-align:center;text-anchor:middle;fill:#6945b4;fill-opacity:1;stroke:none;stroke-width:0.2;stroke-linecap:square;stroke-miterlimit:3;stroke-dasharray:none;stroke-opacity:1"
               x="8.2062712"
               y="12.067793"
               id="text17243"><tspan
                 sodipodi:role="line"
                 id="tspan17241"
                 style="stroke-width:0.2"
                 x="8.2062712"
                 y="12.067793">Presentations</tspan></text></g><text
             xml:space="preserve"
             style="font-size:1.11111px;text-align:start;text-anchor:start;fill:#6945b4;fill-opacity:1;stroke:none;stroke-width:0.2;stroke-linecap:square;stroke-miterlimit:3"
             x="28.447399"
             y="14.477727"
             id="text17359"><tspan
               sodipodi:role="line"
               id="tspan17357"
               style="stroke-width:0.2"
               x="28.447399"
               y="14.477727">2020</tspan></text><text
             xml:space="preserve"
             style="font-size:1.11111px;text-align:start;text-anchor:start;fill:#6945b4;fill-opacity:1;stroke:none;stroke-width:0.2;stroke-linecap:square;stroke-miterlimit:3"
             x="28.540733"
             y="19.093653"
             id="text17363"><tspan
               sodipodi:role="line"
               id="tspan17361"
               style="stroke-width:0.2"
               x="28.540733"
               y="19.093653">2021</tspan></text><text
             xml:space="preserve"
             style="font-size:1.11111px;text-align:start;text-anchor:start;fill:#6945b4;fill-opacity:1;stroke:none;stroke-width:0.2;stroke-linecap:square;stroke-miterlimit:3"
             x="28.449066"
             y="23.709579"
             id="text17367"><tspan
               sodipodi:role="line"
               id="tspan17365"
               style="stroke-width:0.2"
               x="28.449066"
               y="23.709579">2022</tspan></text><text
             xml:space="preserve"
             style="font-size:1.11111px;text-align:start;text-anchor:start;fill:#6945b4;fill-opacity:1;stroke:none;stroke-width:0.2;stroke-linecap:square;stroke-miterlimit:3"
             x="28.451843"
             y="28.325504"
             id="text17371"><tspan
               sodipodi:role="line"
               id="tspan17369"
               style="stroke-width:0.2"
               x="28.451843"
               y="28.325504">2023</tspan></text><text
             xml:space="preserve"
             style="font-size:1.11111px;text-align:start;text-anchor:start;fill:#6945b4;fill-opacity:1;stroke:none;stroke-width:0.2;stroke-linecap:square;stroke-miterlimit:3"
             x="-24.122162"
             y="25.566275"
             id="text17413"
             transform="rotate(-90)"><tspan
               sodipodi:role="line"
               id="tspan17411"
               style="stroke-width:0.2"
               x="-24.122162"
               y="25.566275">Submodules</tspan></text></g></g><text
         xml:space="preserve"
         style="font-size:2.22222px;text-align:start;text-anchor:start;fill:#6945b4;fill-opacity:1;stroke:none;stroke-width:0.2;stroke-linecap:square;stroke-miterlimit:3"
         x="4.7218313"
         y="6.6399503"
         id="text17476"><tspan
           sodipodi:role="line"
           id="tspan17474"
           style="font-size:2.22222px;stroke-width:0.2"
           x="4.7218313"
           y="6.6399503">Old Structure</tspan></text><text
         xml:space="preserve"
         style="font-size:2.22222px;text-align:start;text-anchor:start;fill:#6945b4;fill-opacity:1;stroke:none;stroke-width:0.2;stroke-linecap:square;stroke-miterlimit:3"
         x="34.399616"
         y="6.5599504"
         id="text17480"><tspan
           sodipodi:role="line"
           id="tspan17478"
           style="font-size:2.22222px;stroke-width:0.2"
           x="34.399616"
           y="6.5599504">New Structure</tspan></text></g></g></svg>
